G04 Generated by CircuitCAM Version 4.4*
%FSLAX33Y33*%
%MOMM*%
%ADD411C,0.000000*%
%ADD412C,0.299974*%
%LNSolderPasteTop*%
%LPD*%
G54D411*
X-21477Y-17836D02*
G75*
G03X-18937Y-20376I2540J0D01*
G74*
G01*
X-18937Y-20376D02*
X25983Y-20376D01*
X25983Y-20376D02*
G75*
G03X28523Y-17836I0J2540D01*
G74*
G01*
X28523Y-17836D02*
X28523Y27084D01*
X28523Y27084D02*
G75*
G03X25983Y29624I-2540J0D01*
G74*
G01*
X25983Y29624D02*
X-18937Y29624D01*
X-18937Y29624D02*
G75*
G03X-21477Y27084I0J-2540D01*
G74*
G01*
X-21477Y27084D02*
X-21477Y-17836D01*
G54D412*
X-26834Y-33642D02*
X-26834Y-36923D01*
X-26834Y-33642D02*
X-25584Y-36923D01*
X-24334Y-33642D02*
X-25584Y-36923D01*
X-24334Y-33642D02*
X-24334Y-36923D01*
X-22303Y-33642D02*
X-22616Y-33798D01*
X-22928Y-34111D01*
X-23084Y-34423D01*
X-23241Y-34892D01*
X-23241Y-35673D01*
X-23084Y-36142D01*
X-22928Y-36455D01*
X-22616Y-36767D01*
X-22303Y-36923D01*
X-21678Y-36923D01*
X-21366Y-36767D01*
X-21053Y-36455D01*
X-20897Y-36142D01*
X-20741Y-35673D01*
X-20741Y-34892D01*
X-20897Y-34423D01*
X-21053Y-34111D01*
X-21366Y-33798D01*
X-21678Y-33642D01*
X-22303Y-33642D01*
X-19647Y-33642D02*
X-19647Y-36923D01*
X-19647Y-33642D02*
X-18553Y-33642D01*
X-18084Y-33798D01*
X-17772Y-34111D01*
X-17616Y-34423D01*
X-17459Y-34892D01*
X-17459Y-35673D01*
X-17616Y-36142D01*
X-17772Y-36455D01*
X-18084Y-36767D01*
X-18553Y-36923D01*
X-19647Y-36923D01*
X-16366Y-33642D02*
X-16366Y-36923D01*
X-16366Y-33642D02*
X-14334Y-33642D01*
X-16366Y-35205D02*
X-15116Y-35205D01*
X-16366Y-36923D02*
X-14334Y-36923D01*
X-13397Y-33642D02*
X-13397Y-36923D01*
X-13397Y-36923D02*
X-11522Y-36923D01*
X-10584Y-34736D02*
X-10741Y-34892D01*
X-10584Y-35048D01*
X-10428Y-34892D01*
X-10584Y-34736D01*
X-10584Y-36611D02*
X-10741Y-36767D01*
X-10584Y-36923D01*
X-10428Y-36767D01*
X-10584Y-36611D01*
X-9178Y-33642D02*
X-9178Y-36923D01*
X-9178Y-33642D02*
X-7147Y-33642D01*
X-9178Y-35205D02*
X-7928Y-35205D01*
X-9178Y-36923D02*
X-7147Y-36923D01*
X-4178Y-34111D02*
X-4491Y-33798D01*
X-4959Y-33642D01*
X-5584Y-33642D01*
X-6053Y-33798D01*
X-6366Y-34111D01*
X-6366Y-34423D01*
X-6209Y-34736D01*
X-6053Y-34892D01*
X-5741Y-35048D01*
X-4803Y-35361D01*
X-4491Y-35517D01*
X-4334Y-35673D01*
X-4178Y-35986D01*
X-4178Y-36455D01*
X-4491Y-36767D01*
X-4959Y-36923D01*
X-5584Y-36923D01*
X-6053Y-36767D01*
X-6366Y-36455D01*
X-3084Y-33642D02*
X-3084Y-36923D01*
X-3084Y-33642D02*
X-1678Y-33642D01*
X-1209Y-33798D01*
X-1053Y-33955D01*
X-897Y-34267D01*
X-897Y-34736D01*
X-1053Y-35048D01*
X-1209Y-35205D01*
X-1678Y-35361D01*
X-3084Y-35361D01*
X-428Y-37236D02*
X2384Y-37236D01*
X5041Y-34111D02*
X4728Y-33798D01*
X4259Y-33642D01*
X3634Y-33642D01*
X3166Y-33798D01*
X2853Y-34111D01*
X2853Y-34423D01*
X3009Y-34736D01*
X3166Y-34892D01*
X3478Y-35048D01*
X4416Y-35361D01*
X4728Y-35517D01*
X4884Y-35673D01*
X5041Y-35986D01*
X5041Y-36455D01*
X4728Y-36767D01*
X4259Y-36923D01*
X3634Y-36923D01*
X3166Y-36767D01*
X2853Y-36455D01*
X6134Y-34423D02*
X6134Y-34267D01*
X6291Y-33955D01*
X6447Y-33798D01*
X6759Y-33642D01*
X7384Y-33642D01*
X7697Y-33798D01*
X7853Y-33955D01*
X8009Y-34267D01*
X8009Y-34580D01*
X7853Y-34892D01*
X7541Y-35361D01*
X5978Y-36923D01*
X8166Y-36923D01*
X8634Y-37236D02*
X11447Y-37236D01*
X14103Y-34111D02*
X13791Y-33798D01*
X13322Y-33642D01*
X12697Y-33642D01*
X12228Y-33798D01*
X11916Y-34111D01*
X11916Y-34423D01*
X12072Y-34736D01*
X12228Y-34892D01*
X12541Y-35048D01*
X13478Y-35361D01*
X13791Y-35517D01*
X13947Y-35673D01*
X14103Y-35986D01*
X14103Y-36455D01*
X13791Y-36767D01*
X13322Y-36923D01*
X12697Y-36923D01*
X12228Y-36767D01*
X11916Y-36455D01*
X15822Y-34736D02*
X15509Y-34892D01*
X15197Y-35205D01*
X15041Y-35673D01*
X15041Y-35986D01*
X15197Y-36455D01*
X15509Y-36767D01*
X15822Y-36923D01*
X16291Y-36923D01*
X16603Y-36767D01*
X16916Y-36455D01*
X17072Y-35986D01*
X17072Y-35673D01*
X16916Y-35205D01*
X16603Y-34892D01*
X16291Y-34736D01*
X15822Y-34736D01*
X18166Y-33642D02*
X18166Y-36923D01*
X18166Y-33642D02*
X19416Y-36923D01*
X20666Y-33642D02*
X19416Y-36923D01*
X20666Y-33642D02*
X20666Y-36923D01*
X21291Y-37236D02*
X24103Y-37236D01*
X24728Y-33642D02*
X24728Y-36923D01*
X26916Y-33642D02*
X26916Y-36923D01*
X24728Y-35205D02*
X26916Y-35205D01*
X27853Y-33642D02*
X28634Y-36923D01*
X29416Y-33642D02*
X28634Y-36923D01*
X29416Y-33642D02*
X30197Y-36923D01*
X30978Y-33642D02*
X30197Y-36923D01*
X32697Y-33642D02*
X32228Y-33798D01*
X31916Y-34267D01*
X31759Y-35048D01*
X31759Y-35517D01*
X31916Y-36298D01*
X32228Y-36767D01*
X32697Y-36923D01*
X33009Y-36923D01*
X33478Y-36767D01*
X33791Y-36298D01*
X33947Y-35517D01*
X33947Y-35048D01*
X33791Y-34267D01*
X33478Y-33798D01*
X33009Y-33642D01*
X32697Y-33642D01*
X35822Y-33642D02*
X35353Y-33798D01*
X35041Y-34267D01*
X34884Y-35048D01*
X34884Y-35517D01*
X35041Y-36298D01*
X35353Y-36767D01*
X35822Y-36923D01*
X36134Y-36923D01*
X36603Y-36767D01*
X36916Y-36298D01*
X37072Y-35517D01*
X37072Y-35048D01*
X36916Y-34267D01*
X36603Y-33798D01*
X36134Y-33642D01*
X35822Y-33642D01*
X37541Y-37236D02*
X40353Y-37236D01*
X40509Y-33642D02*
X41759Y-35205D01*
X41759Y-36923D01*
X43009Y-33642D02*
X41759Y-35205D01*
X44103Y-34267D02*
X44416Y-34111D01*
X44884Y-33642D01*
X44884Y-36923D01*
X48791Y-34736D02*
X48634Y-35205D01*
X48322Y-35517D01*
X47853Y-35673D01*
X47697Y-35673D01*
X47228Y-35517D01*
X46916Y-35205D01*
X46759Y-34736D01*
X46759Y-34580D01*
X46916Y-34111D01*
X47228Y-33798D01*
X47697Y-33642D01*
X47853Y-33642D01*
X48322Y-33798D01*
X48634Y-34111D01*
X48791Y-34736D01*
X48791Y-35517D01*
X48634Y-36298D01*
X48322Y-36767D01*
X47853Y-36923D01*
X47541Y-36923D01*
X47072Y-36767D01*
X46916Y-36455D01*
X-24803Y-40381D02*
X-25116Y-40068D01*
X-25584Y-39912D01*
X-26209Y-39912D01*
X-26678Y-40068D01*
X-26991Y-40381D01*
X-26991Y-40693D01*
X-26834Y-41006D01*
X-26678Y-41162D01*
X-26366Y-41318D01*
X-25428Y-41631D01*
X-25116Y-41787D01*
X-24959Y-41943D01*
X-24803Y-42256D01*
X-24803Y-42725D01*
X-25116Y-43037D01*
X-25584Y-43193D01*
X-26209Y-43193D01*
X-26678Y-43037D01*
X-26991Y-42725D01*
X-23709Y-39912D02*
X-23709Y-43193D01*
X-20428Y-39912D02*
X-22616Y-43193D01*
X-22616Y-39912D02*
X-20428Y-39912D01*
X-22616Y-43193D02*
X-20428Y-43193D01*
X-19334Y-39912D02*
X-19334Y-43193D01*
X-19334Y-39912D02*
X-17303Y-39912D01*
X-19334Y-41475D02*
X-18084Y-41475D01*
X-19334Y-43193D02*
X-17303Y-43193D01*
X-16209Y-41006D02*
X-16366Y-41162D01*
X-16209Y-41318D01*
X-16053Y-41162D01*
X-16209Y-41006D01*
X-16209Y-42881D02*
X-16366Y-43037D01*
X-16209Y-43193D01*
X-16053Y-43037D01*
X-16209Y-42881D01*
X-13084Y-39912D02*
X-14647Y-39912D01*
X-14803Y-41318D01*
X-14647Y-41162D01*
X-14178Y-41006D01*
X-13709Y-41006D01*
X-13241Y-41162D01*
X-12928Y-41475D01*
X-12772Y-41943D01*
X-12772Y-42256D01*
X-12928Y-42725D01*
X-13241Y-43037D01*
X-13709Y-43193D01*
X-14178Y-43193D01*
X-14647Y-43037D01*
X-14803Y-42881D01*
X-14959Y-42568D01*
X-10897Y-39912D02*
X-11366Y-40068D01*
X-11678Y-40537D01*
X-11834Y-41318D01*
X-11834Y-41787D01*
X-11678Y-42568D01*
X-11366Y-43037D01*
X-10897Y-43193D01*
X-10584Y-43193D01*
X-10116Y-43037D01*
X-9803Y-42568D01*
X-9647Y-41787D01*
X-9647Y-41318D01*
X-9803Y-40537D01*
X-10116Y-40068D01*
X-10584Y-39912D01*
X-10897Y-39912D01*
X-8709Y-39912D02*
X-6522Y-43193D01*
X-6522Y-39912D02*
X-8709Y-43193D01*
X-3709Y-39912D02*
X-5272Y-39912D01*
X-5428Y-41318D01*
X-5272Y-41162D01*
X-4803Y-41006D01*
X-4334Y-41006D01*
X-3866Y-41162D01*
X-3553Y-41475D01*
X-3397Y-41943D01*
X-3397Y-42256D01*
X-3553Y-42725D01*
X-3866Y-43037D01*
X-4334Y-43193D01*
X-4803Y-43193D01*
X-5272Y-43037D01*
X-5428Y-42881D01*
X-5584Y-42568D01*
X-1522Y-39912D02*
X-1991Y-40068D01*
X-2303Y-40537D01*
X-2459Y-41318D01*
X-2459Y-41787D01*
X-2303Y-42568D01*
X-1991Y-43037D01*
X-1522Y-43193D01*
X-1209Y-43193D01*
X-741Y-43037D01*
X-428Y-42568D01*
X-272Y-41787D01*
X-272Y-41318D01*
X-428Y-40537D01*
X-741Y-40068D01*
X-1209Y-39912D01*
X-1522Y-39912D01*
X822Y-39912D02*
X822Y-43193D01*
X822Y-39912D02*
X2072Y-43193D01*
X3322Y-39912D02*
X2072Y-43193D01*
X3322Y-39912D02*
X3322Y-43193D01*
X4572Y-39912D02*
X4572Y-43193D01*
X4572Y-39912D02*
X5822Y-43193D01*
X7072Y-39912D02*
X5822Y-43193D01*
X7072Y-39912D02*
X7072Y-43193D01*
X13947Y-39912D02*
X13947Y-43193D01*
X12853Y-39912D02*
X15041Y-39912D01*
X15978Y-41006D02*
X15822Y-41162D01*
X15978Y-41318D01*
X16134Y-41162D01*
X15978Y-41006D01*
X15978Y-42881D02*
X15822Y-43037D01*
X15978Y-43193D01*
X16134Y-43037D01*
X15978Y-42881D01*
X18166Y-39912D02*
X17697Y-40068D01*
X17384Y-40537D01*
X17228Y-41318D01*
X17228Y-41787D01*
X17384Y-42568D01*
X17697Y-43037D01*
X18166Y-43193D01*
X18478Y-43193D01*
X18947Y-43037D01*
X19259Y-42568D01*
X19416Y-41787D01*
X19416Y-41318D01*
X19259Y-40537D01*
X18947Y-40068D01*
X18478Y-39912D01*
X18166Y-39912D01*
X20666Y-42881D02*
X20509Y-43037D01*
X20666Y-43193D01*
X20822Y-43037D01*
X20666Y-42881D01*
X22384Y-40537D02*
X22697Y-40381D01*
X23166Y-39912D01*
X23166Y-43193D01*
X25978Y-39912D02*
X25509Y-40068D01*
X25197Y-40537D01*
X25041Y-41318D01*
X25041Y-41787D01*
X25197Y-42568D01*
X25509Y-43037D01*
X25978Y-43193D01*
X26291Y-43193D01*
X26759Y-43037D01*
X27072Y-42568D01*
X27228Y-41787D01*
X27228Y-41318D01*
X27072Y-40537D01*
X26759Y-40068D01*
X26291Y-39912D01*
X25978Y-39912D01*
X28322Y-39912D02*
X28322Y-43193D01*
X28322Y-39912D02*
X29572Y-43193D01*
X30822Y-39912D02*
X29572Y-43193D01*
X30822Y-39912D02*
X30822Y-43193D01*
X32072Y-39912D02*
X32072Y-43193D01*
X32072Y-39912D02*
X33322Y-43193D01*
X34572Y-39912D02*
X33322Y-43193D01*
X34572Y-39912D02*
X34572Y-43193D01*
X-26834Y-46182D02*
X-26834Y-49463D01*
X-26834Y-46182D02*
X-25741Y-46182D01*
X-25272Y-46338D01*
X-24959Y-46651D01*
X-24803Y-46963D01*
X-24647Y-47432D01*
X-24647Y-48213D01*
X-24803Y-48682D01*
X-24959Y-48995D01*
X-25272Y-49307D01*
X-25741Y-49463D01*
X-26834Y-49463D01*
X-22772Y-46182D02*
X-24022Y-49463D01*
X-22772Y-46182D02*
X-21522Y-49463D01*
X-23553Y-48370D02*
X-21991Y-48370D01*
X-20116Y-46182D02*
X-20116Y-49463D01*
X-21209Y-46182D02*
X-19022Y-46182D01*
X-18241Y-46182D02*
X-18241Y-49463D01*
X-18241Y-46182D02*
X-16209Y-46182D01*
X-18241Y-47745D02*
X-16991Y-47745D01*
X-18241Y-49463D02*
X-16209Y-49463D01*
X-15116Y-47276D02*
X-15272Y-47432D01*
X-15116Y-47588D01*
X-14959Y-47432D01*
X-15116Y-47276D01*
X-15116Y-49151D02*
X-15272Y-49307D01*
X-15116Y-49463D01*
X-14959Y-49307D01*
X-15116Y-49151D01*
X-13709Y-46963D02*
X-13709Y-46807D01*
X-13553Y-46495D01*
X-13397Y-46338D01*
X-13084Y-46182D01*
X-12459Y-46182D01*
X-12147Y-46338D01*
X-11991Y-46495D01*
X-11834Y-46807D01*
X-11834Y-47120D01*
X-11991Y-47432D01*
X-12303Y-47901D01*
X-13866Y-49463D01*
X-11678Y-49463D01*
X-9803Y-46182D02*
X-10272Y-46338D01*
X-10584Y-46807D01*
X-10741Y-47588D01*
X-10741Y-48057D01*
X-10584Y-48838D01*
X-10272Y-49307D01*
X-9803Y-49463D01*
X-9491Y-49463D01*
X-9022Y-49307D01*
X-8709Y-48838D01*
X-8553Y-48057D01*
X-8553Y-47588D01*
X-8709Y-46807D01*
X-9022Y-46338D01*
X-9491Y-46182D01*
X-9803Y-46182D01*
X-7459Y-46963D02*
X-7459Y-46807D01*
X-7303Y-46495D01*
X-7147Y-46338D01*
X-6834Y-46182D01*
X-6209Y-46182D01*
X-5897Y-46338D01*
X-5741Y-46495D01*
X-5584Y-46807D01*
X-5584Y-47120D01*
X-5741Y-47432D01*
X-6053Y-47901D01*
X-7616Y-49463D01*
X-5428Y-49463D01*
X-2928Y-46182D02*
X-4491Y-48370D01*
X-2147Y-48370D01*
X-2928Y-46182D02*
X-2928Y-49463D01*
X-1209Y-48057D02*
X1603Y-48057D01*
X3634Y-46182D02*
X3166Y-46338D01*
X2853Y-46807D01*
X2697Y-47588D01*
X2697Y-48057D01*
X2853Y-48838D01*
X3166Y-49307D01*
X3634Y-49463D01*
X3947Y-49463D01*
X4416Y-49307D01*
X4728Y-48838D01*
X4884Y-48057D01*
X4884Y-47588D01*
X4728Y-46807D01*
X4416Y-46338D01*
X3947Y-46182D01*
X3634Y-46182D01*
X6134Y-46182D02*
X7853Y-46182D01*
X6916Y-47432D01*
X7384Y-47432D01*
X7697Y-47588D01*
X7853Y-47745D01*
X8009Y-48213D01*
X8009Y-48526D01*
X7853Y-48995D01*
X7541Y-49307D01*
X7072Y-49463D01*
X6603Y-49463D01*
X6134Y-49307D01*
X5978Y-49151D01*
X5822Y-48838D01*
X9103Y-48057D02*
X11916Y-48057D01*
X13947Y-46182D02*
X13478Y-46338D01*
X13166Y-46807D01*
X13009Y-47588D01*
X13009Y-48057D01*
X13166Y-48838D01*
X13478Y-49307D01*
X13947Y-49463D01*
X14259Y-49463D01*
X14728Y-49307D01*
X15041Y-48838D01*
X15197Y-48057D01*
X15197Y-47588D01*
X15041Y-46807D01*
X14728Y-46338D01*
X14259Y-46182D01*
X13947Y-46182D01*
X17697Y-46182D02*
X16134Y-48370D01*
X18478Y-48370D01*
X17697Y-46182D02*
X17697Y-49463D01*
X21916Y-46963D02*
X21916Y-46807D01*
X22072Y-46495D01*
X22228Y-46338D01*
X22541Y-46182D01*
X23166Y-46182D01*
X23478Y-46338D01*
X23634Y-46495D01*
X23791Y-46807D01*
X23791Y-47120D01*
X23634Y-47432D01*
X23322Y-47901D01*
X21759Y-49463D01*
X23947Y-49463D01*
X25041Y-46963D02*
X25041Y-46807D01*
X25197Y-46495D01*
X25353Y-46338D01*
X25666Y-46182D01*
X26291Y-46182D01*
X26603Y-46338D01*
X26759Y-46495D01*
X26916Y-46807D01*
X26916Y-47120D01*
X26759Y-47432D01*
X26447Y-47901D01*
X24884Y-49463D01*
X27072Y-49463D01*
X28322Y-47276D02*
X28166Y-47432D01*
X28322Y-47588D01*
X28478Y-47432D01*
X28322Y-47276D01*
X28322Y-49151D02*
X28166Y-49307D01*
X28322Y-49463D01*
X28478Y-49307D01*
X28322Y-49151D01*
X30509Y-46182D02*
X30041Y-46338D01*
X29728Y-46807D01*
X29572Y-47588D01*
X29572Y-48057D01*
X29728Y-48838D01*
X30041Y-49307D01*
X30509Y-49463D01*
X30822Y-49463D01*
X31291Y-49307D01*
X31603Y-48838D01*
X31759Y-48057D01*
X31759Y-47588D01*
X31603Y-46807D01*
X31291Y-46338D01*
X30822Y-46182D01*
X30509Y-46182D01*
X33634Y-46182D02*
X33166Y-46338D01*
X32853Y-46807D01*
X32697Y-47588D01*
X32697Y-48057D01*
X32853Y-48838D01*
X33166Y-49307D01*
X33634Y-49463D01*
X33947Y-49463D01*
X34416Y-49307D01*
X34728Y-48838D01*
X34884Y-48057D01*
X34884Y-47588D01*
X34728Y-46807D01*
X34416Y-46338D01*
X33947Y-46182D01*
X33634Y-46182D01*
X-26834Y-52452D02*
X-26834Y-55733D01*
X-26834Y-52452D02*
X-24647Y-55733D01*
X-24647Y-52452D02*
X-24647Y-55733D01*
X-22616Y-52452D02*
X-22928Y-52608D01*
X-23241Y-52921D01*
X-23397Y-53233D01*
X-23553Y-53702D01*
X-23553Y-54483D01*
X-23397Y-54952D01*
X-23241Y-55265D01*
X-22928Y-55577D01*
X-22616Y-55733D01*
X-21991Y-55733D01*
X-21678Y-55577D01*
X-21366Y-55265D01*
X-21209Y-54952D01*
X-21053Y-54483D01*
X-21053Y-53702D01*
X-21209Y-53233D01*
X-21366Y-52921D01*
X-21678Y-52608D01*
X-21991Y-52452D01*
X-22616Y-52452D01*
X-19803Y-53546D02*
X-19959Y-53702D01*
X-19803Y-53858D01*
X-19647Y-53702D01*
X-19803Y-53546D01*
X-19803Y-55421D02*
X-19959Y-55577D01*
X-19803Y-55733D01*
X-19647Y-55577D01*
X-19803Y-55421D01*
X-16366Y-52921D02*
X-16678Y-52608D01*
X-17147Y-52452D01*
X-17772Y-52452D01*
X-18241Y-52608D01*
X-18553Y-52921D01*
X-18553Y-53233D01*
X-18397Y-53546D01*
X-18241Y-53702D01*
X-17928Y-53858D01*
X-16991Y-54171D01*
X-16678Y-54327D01*
X-16522Y-54483D01*
X-16366Y-54796D01*
X-16366Y-55265D01*
X-16678Y-55577D01*
X-17147Y-55733D01*
X-17772Y-55733D01*
X-18241Y-55577D01*
X-18553Y-55265D01*
X-14491Y-52452D02*
X-14803Y-52608D01*
X-15116Y-52921D01*
X-15272Y-53233D01*
X-15428Y-53702D01*
X-15428Y-54483D01*
X-15272Y-54952D01*
X-15116Y-55265D01*
X-14803Y-55577D01*
X-14491Y-55733D01*
X-13866Y-55733D01*
X-13553Y-55577D01*
X-13241Y-55265D01*
X-13084Y-54952D01*
X-12928Y-54483D01*
X-12928Y-53702D01*
X-13084Y-53233D01*
X-13241Y-52921D01*
X-13553Y-52608D01*
X-13866Y-52452D01*
X-14491Y-52452D01*
X-11522Y-53077D02*
X-11209Y-52921D01*
X-10741Y-52452D01*
X-10741Y-55733D01*
X-8709Y-53233D02*
X-8709Y-53077D01*
X-8553Y-52765D01*
X-8397Y-52608D01*
X-8084Y-52452D01*
X-7459Y-52452D01*
X-7147Y-52608D01*
X-6991Y-52765D01*
X-6834Y-53077D01*
X-6834Y-53390D01*
X-6991Y-53702D01*
X-7303Y-54171D01*
X-8866Y-55733D01*
X-6678Y-55733D01*
X-4178Y-52452D02*
X-5741Y-54640D01*
X-3397Y-54640D01*
X-4178Y-52452D02*
X-4178Y-55733D01*
X-1678Y-52452D02*
X-2147Y-52608D01*
X-2459Y-53077D01*
X-2616Y-53858D01*
X-2616Y-54327D01*
X-2459Y-55108D01*
X-2147Y-55577D01*
X-1678Y-55733D01*
X-1366Y-55733D01*
X-897Y-55577D01*
X-584Y-55108D01*
X-428Y-54327D01*
X-428Y-53858D01*
X-584Y-53077D01*
X-897Y-52608D01*
X-1366Y-52452D01*
X-1678Y-52452D01*
X666Y-53233D02*
X666Y-53077D01*
X822Y-52765D01*
X978Y-52608D01*
X1291Y-52452D01*
X1916Y-52452D01*
X2228Y-52608D01*
X2384Y-52765D01*
X2541Y-53077D01*
X2541Y-53390D01*
X2384Y-53702D01*
X2072Y-54171D01*
X509Y-55733D01*
X2697Y-55733D01*
X3791Y-53233D02*
X3791Y-53077D01*
X3947Y-52765D01*
X4103Y-52608D01*
X4416Y-52452D01*
X5041Y-52452D01*
X5353Y-52608D01*
X5509Y-52765D01*
X5666Y-53077D01*
X5666Y-53390D01*
X5509Y-53702D01*
X5197Y-54171D01*
X3634Y-55733D01*
X5822Y-55733D01*
X7541Y-52452D02*
X7072Y-52608D01*
X6916Y-52921D01*
X6916Y-53233D01*
X7072Y-53546D01*
X7384Y-53702D01*
X8009Y-53858D01*
X8478Y-54015D01*
X8791Y-54327D01*
X8947Y-54640D01*
X8947Y-55108D01*
X8791Y-55421D01*
X8634Y-55577D01*
X8166Y-55733D01*
X7541Y-55733D01*
X7072Y-55577D01*
X6916Y-55421D01*
X6759Y-55108D01*
X6759Y-54640D01*
X6916Y-54327D01*
X7228Y-54015D01*
X7697Y-53858D01*
X8322Y-53702D01*
X8634Y-53546D01*
X8791Y-53233D01*
X8791Y-52921D01*
X8634Y-52608D01*
X8166Y-52452D01*
X7541Y-52452D01*
X11916Y-52921D02*
X11759Y-52608D01*
X11291Y-52452D01*
X10978Y-52452D01*
X10509Y-52608D01*
X10197Y-53077D01*
X10041Y-53858D01*
X10041Y-54640D01*
X10197Y-55265D01*
X10509Y-55577D01*
X10978Y-55733D01*
X11134Y-55733D01*
X11603Y-55577D01*
X11916Y-55265D01*
X12072Y-54796D01*
X12072Y-54640D01*
X11916Y-54171D01*
X11603Y-53858D01*
X11134Y-53702D01*
X10978Y-53702D01*
X10509Y-53858D01*
X10197Y-54171D01*
X10041Y-54640D01*
X13166Y-53233D02*
X13166Y-53077D01*
X13322Y-52765D01*
X13478Y-52608D01*
X13791Y-52452D01*
X14416Y-52452D01*
X14728Y-52608D01*
X14884Y-52765D01*
X15041Y-53077D01*
X15041Y-53390D01*
X14884Y-53702D01*
X14572Y-54171D01*
X13009Y-55733D01*
X15197Y-55733D01*
X18166Y-52921D02*
X18009Y-52608D01*
X17541Y-52452D01*
X17228Y-52452D01*
X16759Y-52608D01*
X16447Y-53077D01*
X16291Y-53858D01*
X16291Y-54640D01*
X16447Y-55265D01*
X16759Y-55577D01*
X17228Y-55733D01*
X17384Y-55733D01*
X17853Y-55577D01*
X18166Y-55265D01*
X18322Y-54796D01*
X18322Y-54640D01*
X18166Y-54171D01*
X17853Y-53858D01*
X17384Y-53702D01*
X17228Y-53702D01*
X16759Y-53858D01*
X16447Y-54171D01*
X16291Y-54640D01*
X20822Y-52452D02*
X19259Y-54640D01*
X21603Y-54640D01*
X20822Y-52452D02*
X20822Y-55733D01*
X32541Y-53233D02*
X32541Y-53077D01*
X32697Y-52765D01*
X32853Y-52608D01*
X33166Y-52452D01*
X33791Y-52452D01*
X34103Y-52608D01*
X34259Y-52765D01*
X34416Y-53077D01*
X34416Y-53390D01*
X34259Y-53702D01*
X33947Y-54171D01*
X32384Y-55733D01*
X34572Y-55733D01*
X37541Y-52921D02*
X37384Y-52608D01*
X36916Y-52452D01*
X36603Y-52452D01*
X36134Y-52608D01*
X35822Y-53077D01*
X35666Y-53858D01*
X35666Y-54640D01*
X35822Y-55265D01*
X36134Y-55577D01*
X36603Y-55733D01*
X36759Y-55733D01*
X37228Y-55577D01*
X37541Y-55265D01*
X37697Y-54796D01*
X37697Y-54640D01*
X37541Y-54171D01*
X37228Y-53858D01*
X36759Y-53702D01*
X36603Y-53702D01*
X36134Y-53858D01*
X35822Y-54171D01*
X35666Y-54640D01*
X38791Y-53233D02*
X38791Y-53077D01*
X38947Y-52765D01*
X39103Y-52608D01*
X39416Y-52452D01*
X40041Y-52452D01*
X40353Y-52608D01*
X40509Y-52765D01*
X40666Y-53077D01*
X40666Y-53390D01*
X40509Y-53702D01*
X40197Y-54171D01*
X38634Y-55733D01*
X40822Y-55733D01*
X43634Y-52452D02*
X42072Y-52452D01*
X41916Y-53858D01*
X42072Y-53702D01*
X42541Y-53546D01*
X43009Y-53546D01*
X43478Y-53702D01*
X43791Y-54015D01*
X43947Y-54483D01*
X43947Y-54796D01*
X43791Y-55265D01*
X43478Y-55577D01*
X43009Y-55733D01*
X42541Y-55733D01*
X42072Y-55577D01*
X41916Y-55421D01*
X41759Y-55108D01*
X45041Y-53233D02*
X45041Y-53077D01*
X45197Y-52765D01*
X45353Y-52608D01*
X45666Y-52452D01*
X46291Y-52452D01*
X46603Y-52608D01*
X46759Y-52765D01*
X46916Y-53077D01*
X46916Y-53390D01*
X46759Y-53702D01*
X46447Y-54171D01*
X44884Y-55733D01*
X47072Y-55733D01*
X50197Y-52452D02*
X48634Y-55733D01*
X48009Y-52452D02*
X50197Y-52452D01*
X51916Y-52452D02*
X51447Y-52608D01*
X51291Y-52921D01*
X51291Y-53233D01*
X51447Y-53546D01*
X51759Y-53702D01*
X52384Y-53858D01*
X52853Y-54015D01*
X53166Y-54327D01*
X53322Y-54640D01*
X53322Y-55108D01*
X53166Y-55421D01*
X53009Y-55577D01*
X52541Y-55733D01*
X51916Y-55733D01*
X51447Y-55577D01*
X51291Y-55421D01*
X51134Y-55108D01*
X51134Y-54640D01*
X51291Y-54327D01*
X51603Y-54015D01*
X52072Y-53858D01*
X52697Y-53702D01*
X53009Y-53546D01*
X53166Y-53233D01*
X53166Y-52921D01*
X53009Y-52608D01*
X52541Y-52452D01*
X51916Y-52452D01*
X55197Y-52452D02*
X53947Y-55733D01*
X55197Y-52452D02*
X56447Y-55733D01*
X54416Y-54640D02*
X55978Y-54640D01*
X60822Y-51827D02*
X60509Y-52140D01*
X60197Y-52608D01*
X59884Y-53233D01*
X59728Y-54015D01*
X59728Y-54640D01*
X59884Y-55421D01*
X60197Y-56046D01*
X60509Y-56515D01*
X60822Y-56827D01*
X61759Y-51827D02*
X62072Y-52140D01*
X62384Y-52608D01*
X62697Y-53233D01*
X62853Y-54015D01*
X62853Y-54640D01*
X62697Y-55421D01*
X62384Y-56046D01*
X62072Y-56515D01*
X61759Y-56827D01*
X-25897Y-61847D02*
X-25897Y-58566D01*
X-25897Y-58566D02*
X-25897Y-58253D01*
X-25116Y-58253D01*
X-25897Y-61847D02*
X-25897Y-62160D01*
X-25116Y-62160D01*
X-23866Y-58566D02*
X-23866Y-61847D01*
X-23866Y-58566D02*
X-23866Y-58253D01*
X-24647Y-58253D01*
X-23866Y-61847D02*
X-23866Y-62160D01*
X-24647Y-62160D01*
G36*
G01X-12327Y15074D02*
X-13527Y15074D01*
X-13527Y13274D01*
X-12327Y13274D01*
X-12327Y15074D01*
G37*
G36*
G01X-15227Y15074D02*
X-16427Y15074D01*
X-16427Y13274D01*
X-15227Y13274D01*
X-15227Y15074D01*
G37*
G36*
G01X-2805Y15054D02*
X-3150Y15054D01*
X-3188Y15049D01*
X-3224Y15034D01*
X-3254Y15010D01*
X-3278Y14980D01*
X-3292Y14944D01*
X-3297Y14906D01*
X-3297Y14611D01*
X-3292Y14573D01*
X-3277Y14537D01*
X-3254Y14507D01*
X-3223Y14483D01*
X-3187Y14469D01*
X-3150Y14464D01*
X-2805Y14464D01*
X-2766Y14469D01*
X-2731Y14484D01*
X-2700Y14507D01*
X-2676Y14538D01*
X-2662Y14574D01*
X-2657Y14611D01*
X-2657Y14906D01*
X-2662Y14945D01*
X-2677Y14980D01*
X-2700Y15011D01*
X-2731Y15034D01*
X-2767Y15049D01*
X-2805Y15054D01*
G37*
G36*
G01X-3805Y15054D02*
X-4150Y15054D01*
X-4188Y15049D01*
X-4224Y15034D01*
X-4254Y15010D01*
X-4278Y14980D01*
X-4292Y14944D01*
X-4297Y14906D01*
X-4297Y14611D01*
X-4292Y14573D01*
X-4277Y14537D01*
X-4254Y14507D01*
X-4223Y14483D01*
X-4187Y14469D01*
X-4150Y14464D01*
X-3805Y14464D01*
X-3766Y14469D01*
X-3731Y14484D01*
X-3700Y14507D01*
X-3676Y14538D01*
X-3662Y14574D01*
X-3657Y14611D01*
X-3657Y14906D01*
X-3662Y14945D01*
X-3677Y14980D01*
X-3700Y15011D01*
X-3731Y15034D01*
X-3767Y15049D01*
X-3805Y15054D01*
G37*
G36*
G01X-4805Y15054D02*
X-5150Y15054D01*
X-5188Y15049D01*
X-5224Y15034D01*
X-5254Y15010D01*
X-5278Y14980D01*
X-5292Y14944D01*
X-5297Y14906D01*
X-5297Y14611D01*
X-5292Y14573D01*
X-5277Y14537D01*
X-5254Y14507D01*
X-5223Y14483D01*
X-5187Y14469D01*
X-5150Y14464D01*
X-4805Y14464D01*
X-4766Y14469D01*
X-4731Y14484D01*
X-4700Y14507D01*
X-4676Y14538D01*
X-4662Y14574D01*
X-4657Y14611D01*
X-4657Y14906D01*
X-4662Y14945D01*
X-4677Y14980D01*
X-4700Y15011D01*
X-4731Y15034D01*
X-4767Y15049D01*
X-4805Y15054D01*
G37*
G36*
G01X-9377Y14478D02*
X-9578Y14478D01*
X-9605Y14473D01*
X-9630Y14458D01*
X-9648Y14436D01*
X-9656Y14409D01*
X-9657Y14398D01*
X-9657Y14239D01*
X-9652Y14211D01*
X-9638Y14187D01*
X-9616Y14169D01*
X-9589Y14160D01*
X-9377Y14160D01*
X-9349Y14165D01*
X-9324Y14179D01*
X-9307Y14201D01*
X-9298Y14228D01*
X-9297Y14239D01*
X-9297Y14398D01*
X-9302Y14426D01*
X-9316Y14450D01*
X-9339Y14468D01*
X-9365Y14477D01*
X-9377Y14478D01*
G37*
G36*
G01X9208Y14964D02*
X8838Y14964D01*
X8801Y14959D01*
X8767Y14944D01*
X8739Y14921D01*
X8718Y14890D01*
X8706Y14855D01*
X8703Y14829D01*
X8703Y14559D01*
X8708Y14522D01*
X8723Y14488D01*
X8746Y14460D01*
X8776Y14438D01*
X8811Y14426D01*
X8838Y14424D01*
X9208Y14424D01*
X9245Y14429D01*
X9278Y14443D01*
X9307Y14467D01*
X9328Y14497D01*
X9340Y14532D01*
X9343Y14559D01*
X9343Y14829D01*
X9338Y14865D01*
X9323Y14899D01*
X9300Y14928D01*
X9270Y14949D01*
X9235Y14961D01*
X9208Y14964D01*
G37*
G36*
G01X8208Y14964D02*
X7838Y14964D01*
X7801Y14959D01*
X7767Y14944D01*
X7739Y14921D01*
X7718Y14890D01*
X7706Y14855D01*
X7703Y14829D01*
X7703Y14559D01*
X7708Y14522D01*
X7723Y14488D01*
X7746Y14460D01*
X7776Y14438D01*
X7811Y14426D01*
X7838Y14424D01*
X8208Y14424D01*
X8245Y14429D01*
X8278Y14443D01*
X8307Y14467D01*
X8328Y14497D01*
X8340Y14532D01*
X8343Y14559D01*
X8343Y14829D01*
X8338Y14865D01*
X8323Y14899D01*
X8300Y14928D01*
X8270Y14949D01*
X8235Y14961D01*
X8208Y14964D01*
G37*
G36*
G01X7208Y14964D02*
X6838Y14964D01*
X6801Y14959D01*
X6767Y14944D01*
X6739Y14921D01*
X6718Y14890D01*
X6706Y14855D01*
X6703Y14829D01*
X6703Y14559D01*
X6708Y14522D01*
X6723Y14488D01*
X6746Y14460D01*
X6776Y14438D01*
X6811Y14426D01*
X6838Y14424D01*
X7208Y14424D01*
X7245Y14429D01*
X7278Y14443D01*
X7307Y14467D01*
X7328Y14497D01*
X7340Y14532D01*
X7343Y14559D01*
X7343Y14829D01*
X7338Y14865D01*
X7323Y14899D01*
X7300Y14928D01*
X7270Y14949D01*
X7235Y14961D01*
X7208Y14964D01*
G37*
G36*
G01X11208Y14959D02*
X10838Y14959D01*
X10801Y14954D01*
X10767Y14939D01*
X10739Y14916D01*
X10718Y14885D01*
X10706Y14850D01*
X10703Y14824D01*
X10703Y14554D01*
X10708Y14517D01*
X10723Y14483D01*
X10746Y14455D01*
X10776Y14433D01*
X10811Y14421D01*
X10838Y14419D01*
X11208Y14419D01*
X11245Y14424D01*
X11278Y14438D01*
X11307Y14462D01*
X11328Y14492D01*
X11340Y14527D01*
X11343Y14554D01*
X11343Y14824D01*
X11338Y14860D01*
X11323Y14894D01*
X11300Y14923D01*
X11270Y14944D01*
X11235Y14956D01*
X11208Y14959D01*
G37*
G36*
G01X10208Y14959D02*
X9838Y14959D01*
X9801Y14954D01*
X9767Y14939D01*
X9739Y14916D01*
X9718Y14885D01*
X9706Y14850D01*
X9703Y14824D01*
X9703Y14554D01*
X9708Y14517D01*
X9723Y14483D01*
X9746Y14455D01*
X9776Y14433D01*
X9811Y14421D01*
X9838Y14419D01*
X10208Y14419D01*
X10245Y14424D01*
X10278Y14438D01*
X10307Y14462D01*
X10328Y14492D01*
X10340Y14527D01*
X10343Y14554D01*
X10343Y14824D01*
X10338Y14860D01*
X10323Y14894D01*
X10300Y14923D01*
X10270Y14944D01*
X10235Y14956D01*
X10208Y14959D01*
G37*
G36*
G01X12208Y14944D02*
X11838Y14944D01*
X11801Y14939D01*
X11767Y14924D01*
X11739Y14901D01*
X11718Y14870D01*
X11706Y14835D01*
X11703Y14809D01*
X11703Y14539D01*
X11708Y14502D01*
X11723Y14468D01*
X11746Y14440D01*
X11776Y14418D01*
X11811Y14406D01*
X11838Y14404D01*
X12208Y14404D01*
X12245Y14409D01*
X12278Y14423D01*
X12307Y14447D01*
X12328Y14477D01*
X12340Y14512D01*
X12343Y14539D01*
X12343Y14809D01*
X12338Y14845D01*
X12323Y14879D01*
X12300Y14908D01*
X12270Y14929D01*
X12235Y14941D01*
X12208Y14944D01*
G37*
G36*
G01X-8600Y14324D02*
X-8628Y14321D01*
X-8654Y14309D01*
X-8662Y14301D01*
X-8805Y14159D01*
X-8821Y14136D01*
X-8828Y14108D01*
X-8828Y14103D01*
X-8823Y14075D01*
X-8808Y14051D01*
X-8805Y14047D01*
X-8692Y13934D01*
X-8669Y13918D01*
X-8641Y13911D01*
X-8613Y13914D01*
X-8588Y13927D01*
X-8580Y13934D01*
X-8437Y14076D01*
X-8421Y14100D01*
X-8414Y14127D01*
X-8414Y14133D01*
X-8419Y14160D01*
X-8434Y14185D01*
X-8550Y14301D01*
X-8573Y14317D01*
X-8600Y14324D01*
G37*
G36*
G01X-2805Y14084D02*
X-3150Y14084D01*
X-3188Y14079D01*
X-3224Y14064D01*
X-3254Y14040D01*
X-3278Y14010D01*
X-3292Y13974D01*
X-3297Y13936D01*
X-3297Y13641D01*
X-3292Y13603D01*
X-3277Y13567D01*
X-3254Y13537D01*
X-3223Y13513D01*
X-3187Y13499D01*
X-3150Y13494D01*
X-2805Y13494D01*
X-2766Y13499D01*
X-2731Y13514D01*
X-2700Y13537D01*
X-2676Y13568D01*
X-2662Y13604D01*
X-2657Y13641D01*
X-2657Y13936D01*
X-2662Y13975D01*
X-2677Y14010D01*
X-2700Y14041D01*
X-2731Y14064D01*
X-2767Y14079D01*
X-2805Y14084D01*
G37*
G36*
G01X-3805Y14084D02*
X-4150Y14084D01*
X-4188Y14079D01*
X-4224Y14064D01*
X-4254Y14040D01*
X-4278Y14010D01*
X-4292Y13974D01*
X-4297Y13936D01*
X-4297Y13641D01*
X-4292Y13603D01*
X-4277Y13567D01*
X-4254Y13537D01*
X-4223Y13513D01*
X-4187Y13499D01*
X-4150Y13494D01*
X-3805Y13494D01*
X-3766Y13499D01*
X-3731Y13514D01*
X-3700Y13537D01*
X-3676Y13568D01*
X-3662Y13604D01*
X-3657Y13641D01*
X-3657Y13936D01*
X-3662Y13975D01*
X-3677Y14010D01*
X-3700Y14041D01*
X-3731Y14064D01*
X-3767Y14079D01*
X-3805Y14084D01*
G37*
G36*
G01X-4805Y14084D02*
X-5150Y14084D01*
X-5188Y14079D01*
X-5224Y14064D01*
X-5254Y14040D01*
X-5278Y14010D01*
X-5292Y13974D01*
X-5297Y13936D01*
X-5297Y13641D01*
X-5292Y13603D01*
X-5277Y13567D01*
X-5254Y13537D01*
X-5223Y13513D01*
X-5187Y13499D01*
X-5150Y13494D01*
X-4805Y13494D01*
X-4766Y13499D01*
X-4731Y13514D01*
X-4700Y13537D01*
X-4676Y13568D01*
X-4662Y13604D01*
X-4657Y13641D01*
X-4657Y13936D01*
X-4662Y13975D01*
X-4677Y14010D01*
X-4700Y14041D01*
X-4731Y14064D01*
X-4767Y14079D01*
X-4805Y14084D01*
G37*
G36*
G01X-8112Y13836D02*
X-8140Y13834D01*
X-8166Y13821D01*
X-8175Y13813D01*
X-8317Y13671D01*
X-8333Y13648D01*
X-8340Y13621D01*
X-8340Y13615D01*
X-8335Y13587D01*
X-8320Y13563D01*
X-8317Y13559D01*
X-8204Y13446D01*
X-8181Y13430D01*
X-8154Y13423D01*
X-8125Y13426D01*
X-8100Y13439D01*
X-8092Y13446D01*
X-7950Y13588D01*
X-7933Y13612D01*
X-7926Y13639D01*
X-7926Y13645D01*
X-7931Y13673D01*
X-7946Y13697D01*
X-8062Y13813D01*
X-8085Y13829D01*
X-8112Y13836D01*
G37*
G36*
G01X-9377Y13788D02*
X-9578Y13788D01*
X-9605Y13783D01*
X-9630Y13768D01*
X-9648Y13746D01*
X-9656Y13719D01*
X-9657Y13708D01*
X-9657Y13549D01*
X-9652Y13521D01*
X-9638Y13497D01*
X-9616Y13479D01*
X-9589Y13470D01*
X-9377Y13470D01*
X-9349Y13475D01*
X-9324Y13489D01*
X-9307Y13511D01*
X-9298Y13538D01*
X-9297Y13549D01*
X-9297Y13708D01*
X-9302Y13736D01*
X-9316Y13760D01*
X-9339Y13778D01*
X-9365Y13787D01*
X-9377Y13788D01*
G37*
G36*
G01X9208Y13944D02*
X8838Y13944D01*
X8801Y13939D01*
X8767Y13924D01*
X8739Y13901D01*
X8718Y13870D01*
X8706Y13835D01*
X8703Y13809D01*
X8703Y13539D01*
X8708Y13502D01*
X8723Y13468D01*
X8746Y13440D01*
X8776Y13418D01*
X8811Y13406D01*
X8838Y13404D01*
X9208Y13404D01*
X9245Y13409D01*
X9278Y13423D01*
X9307Y13447D01*
X9328Y13477D01*
X9340Y13512D01*
X9343Y13539D01*
X9343Y13809D01*
X9338Y13845D01*
X9323Y13879D01*
X9300Y13908D01*
X9270Y13929D01*
X9235Y13941D01*
X9208Y13944D01*
G37*
G36*
G01X8208Y13944D02*
X7838Y13944D01*
X7801Y13939D01*
X7767Y13924D01*
X7739Y13901D01*
X7718Y13870D01*
X7706Y13835D01*
X7703Y13809D01*
X7703Y13539D01*
X7708Y13502D01*
X7723Y13468D01*
X7746Y13440D01*
X7776Y13418D01*
X7811Y13406D01*
X7838Y13404D01*
X8208Y13404D01*
X8245Y13409D01*
X8278Y13423D01*
X8307Y13447D01*
X8328Y13477D01*
X8340Y13512D01*
X8343Y13539D01*
X8343Y13809D01*
X8338Y13845D01*
X8323Y13879D01*
X8300Y13908D01*
X8270Y13929D01*
X8235Y13941D01*
X8208Y13944D01*
G37*
G36*
G01X7208Y13944D02*
X6838Y13944D01*
X6801Y13939D01*
X6767Y13924D01*
X6739Y13901D01*
X6718Y13870D01*
X6706Y13835D01*
X6703Y13809D01*
X6703Y13539D01*
X6708Y13502D01*
X6723Y13468D01*
X6746Y13440D01*
X6776Y13418D01*
X6811Y13406D01*
X6838Y13404D01*
X7208Y13404D01*
X7245Y13409D01*
X7278Y13423D01*
X7307Y13447D01*
X7328Y13477D01*
X7340Y13512D01*
X7343Y13539D01*
X7343Y13809D01*
X7338Y13845D01*
X7323Y13879D01*
X7300Y13908D01*
X7270Y13929D01*
X7235Y13941D01*
X7208Y13944D01*
G37*
G36*
G01X11208Y13939D02*
X10838Y13939D01*
X10801Y13934D01*
X10767Y13919D01*
X10739Y13896D01*
X10718Y13865D01*
X10706Y13830D01*
X10703Y13804D01*
X10703Y13534D01*
X10708Y13497D01*
X10723Y13463D01*
X10746Y13435D01*
X10776Y13413D01*
X10811Y13401D01*
X10838Y13399D01*
X11208Y13399D01*
X11245Y13404D01*
X11278Y13418D01*
X11307Y13442D01*
X11328Y13472D01*
X11340Y13507D01*
X11343Y13534D01*
X11343Y13804D01*
X11338Y13840D01*
X11323Y13874D01*
X11300Y13903D01*
X11270Y13924D01*
X11235Y13936D01*
X11208Y13939D01*
G37*
G36*
G01X10208Y13939D02*
X9838Y13939D01*
X9801Y13934D01*
X9767Y13919D01*
X9739Y13896D01*
X9718Y13865D01*
X9706Y13830D01*
X9703Y13804D01*
X9703Y13534D01*
X9708Y13497D01*
X9723Y13463D01*
X9746Y13435D01*
X9776Y13413D01*
X9811Y13401D01*
X9838Y13399D01*
X10208Y13399D01*
X10245Y13404D01*
X10278Y13418D01*
X10307Y13442D01*
X10328Y13472D01*
X10340Y13507D01*
X10343Y13534D01*
X10343Y13804D01*
X10338Y13840D01*
X10323Y13874D01*
X10300Y13903D01*
X10270Y13924D01*
X10235Y13936D01*
X10208Y13939D01*
G37*
G36*
G01X12208Y13924D02*
X11838Y13924D01*
X11801Y13919D01*
X11767Y13904D01*
X11739Y13881D01*
X11718Y13850D01*
X11706Y13815D01*
X11703Y13789D01*
X11703Y13519D01*
X11708Y13482D01*
X11723Y13448D01*
X11746Y13420D01*
X11776Y13398D01*
X11811Y13386D01*
X11838Y13384D01*
X12208Y13384D01*
X12245Y13389D01*
X12278Y13403D01*
X12307Y13427D01*
X12328Y13457D01*
X12340Y13492D01*
X12343Y13519D01*
X12343Y13789D01*
X12338Y13825D01*
X12323Y13859D01*
X12300Y13888D01*
X12270Y13909D01*
X12235Y13921D01*
X12208Y13924D01*
G37*
G36*
G01X-7442Y13224D02*
X-7470Y13221D01*
X-7495Y13209D01*
X-7505Y13201D01*
X-7616Y13089D01*
X-7633Y13066D01*
X-7640Y13039D01*
X-7640Y13033D01*
X-7635Y13005D01*
X-7620Y12980D01*
X-7617Y12976D01*
X-7475Y12834D01*
X-7451Y12818D01*
X-7424Y12811D01*
X-7396Y12814D01*
X-7370Y12827D01*
X-7362Y12834D01*
X-7250Y12946D01*
X-7234Y12969D01*
X-7226Y12997D01*
X-7226Y13003D01*
X-7231Y13031D01*
X-7246Y13055D01*
X-7250Y13060D01*
X-7391Y13201D01*
X-7414Y13217D01*
X-7442Y13224D01*
G37*
G36*
G01X18523Y13178D02*
X18322Y13178D01*
X18295Y13173D01*
X18270Y13158D01*
X18253Y13136D01*
X18244Y13109D01*
X18243Y13098D01*
X18243Y12939D01*
X18248Y12911D01*
X18262Y12887D01*
X18284Y12869D01*
X18311Y12860D01*
X18523Y12860D01*
X18551Y12865D01*
X18576Y12879D01*
X18593Y12901D01*
X18602Y12928D01*
X18603Y12939D01*
X18603Y13098D01*
X18598Y13126D01*
X18584Y13150D01*
X18562Y13168D01*
X18535Y13177D01*
X18523Y13178D01*
G37*
G36*
G01X17873Y13178D02*
X17672Y13178D01*
X17645Y13173D01*
X17620Y13158D01*
X17603Y13136D01*
X17594Y13109D01*
X17593Y13098D01*
X17593Y12939D01*
X17598Y12911D01*
X17612Y12887D01*
X17634Y12869D01*
X17661Y12860D01*
X17873Y12860D01*
X17901Y12865D01*
X17926Y12879D01*
X17943Y12901D01*
X17952Y12928D01*
X17953Y12939D01*
X17953Y13098D01*
X17948Y13126D01*
X17934Y13150D01*
X17912Y13168D01*
X17885Y13177D01*
X17873Y13178D01*
G37*
G36*
G01X17223Y13178D02*
X17022Y13178D01*
X16995Y13173D01*
X16970Y13158D01*
X16953Y13136D01*
X16944Y13109D01*
X16943Y13098D01*
X16943Y12939D01*
X16948Y12911D01*
X16962Y12887D01*
X16984Y12869D01*
X17011Y12860D01*
X17223Y12860D01*
X17251Y12865D01*
X17276Y12879D01*
X17293Y12901D01*
X17302Y12928D01*
X17303Y12939D01*
X17303Y13098D01*
X17298Y13126D01*
X17284Y13150D01*
X17262Y13168D01*
X17235Y13177D01*
X17223Y13178D01*
G37*
G36*
G01X12937Y13157D02*
X12890Y13149D01*
X12846Y13131D01*
X12806Y13105D01*
X12791Y13091D01*
X12474Y12774D01*
X12444Y12737D01*
X12422Y12694D01*
X12410Y12648D01*
X12408Y12614D01*
X12413Y12567D01*
X12428Y12521D01*
X12452Y12480D01*
X12474Y12454D01*
X12826Y12102D01*
X12864Y12072D01*
X12906Y12050D01*
X12952Y12038D01*
X13000Y12036D01*
X13047Y12044D01*
X13091Y12061D01*
X13131Y12088D01*
X13146Y12102D01*
X13463Y12419D01*
X13493Y12456D01*
X13515Y12499D01*
X13527Y12545D01*
X13530Y12579D01*
X13524Y12626D01*
X13509Y12672D01*
X13485Y12713D01*
X13463Y12738D01*
X13111Y13091D01*
X13074Y13121D01*
X13031Y13143D01*
X12985Y13155D01*
X12937Y13157D01*
G37*
G36*
G01X-797Y12764D02*
G75*
G03X-917Y12884I-120J0D01*
G74*
G01*
G75*
G03X-1037Y12764I0J-120D01*
G74*
G01*
X-1037Y12104D01*
G75*
G03X-917Y11984I120J0D01*
G74*
G01*
G75*
G03X-797Y12104I0J120D01*
G74*
G01*
X-797Y12764D01*
G37*
G36*
G01X-1297Y12764D02*
G75*
G03X-1417Y12884I-120J0D01*
G74*
G01*
G75*
G03X-1537Y12764I0J-120D01*
G74*
G01*
X-1537Y12104D01*
G75*
G03X-1417Y11984I120J0D01*
G74*
G01*
G75*
G03X-1297Y12104I0J120D01*
G74*
G01*
X-1297Y12764D01*
G37*
G36*
G01X-1797Y12764D02*
G75*
G03X-1917Y12884I-120J0D01*
G74*
G01*
G75*
G03X-2037Y12764I0J-120D01*
G74*
G01*
X-2037Y12104D01*
G75*
G03X-1917Y11984I120J0D01*
G74*
G01*
G75*
G03X-1797Y12104I0J120D01*
G74*
G01*
X-1797Y12664D01*
G75*
G03X-1797Y12674I-120J0D01*
G74*
G01*
X-1797Y12764D01*
G37*
G36*
G01X-2297Y12764D02*
G75*
G03X-2417Y12884I-120J0D01*
G74*
G01*
G75*
G03X-2537Y12764I0J-120D01*
G74*
G01*
X-2537Y12674D01*
G75*
G03X-2537Y12664I120J-10D01*
G74*
G01*
X-2537Y12104D01*
G75*
G03X-2417Y11984I120J0D01*
G74*
G01*
G75*
G03X-2297Y12104I0J120D01*
G74*
G01*
X-2297Y12764D01*
G37*
G36*
G01X-7930Y12736D02*
X-7958Y12734D01*
X-7983Y12721D01*
X-7992Y12713D01*
X-8104Y12601D01*
X-8121Y12578D01*
X-8128Y12551D01*
X-8128Y12545D01*
X-8123Y12517D01*
X-8108Y12492D01*
X-8105Y12488D01*
X-7962Y12346D01*
X-7939Y12330D01*
X-7912Y12323D01*
X-7884Y12326D01*
X-7858Y12339D01*
X-7850Y12347D01*
X-7738Y12458D01*
X-7721Y12482D01*
X-7714Y12509D01*
X-7714Y12515D01*
X-7719Y12543D01*
X-7734Y12567D01*
X-7738Y12572D01*
X-7879Y12713D01*
X-7902Y12729D01*
X-7930Y12736D01*
G37*
G36*
G01X-4467Y12009D02*
X-4967Y12009D01*
X-5015Y12004D01*
X-5060Y11989D01*
X-5101Y11965D01*
X-5136Y11932D01*
X-5164Y11893D01*
X-5182Y11849D01*
X-5191Y11802D01*
X-5192Y11784D01*
X-5192Y11334D01*
X-5187Y11286D01*
X-5172Y11241D01*
X-5148Y11200D01*
X-5116Y11165D01*
X-5077Y11137D01*
X-5033Y11118D01*
X-4986Y11109D01*
X-4467Y11109D01*
X-4420Y11114D01*
X-4374Y11129D01*
X-4333Y11153D01*
X-4298Y11185D01*
X-4270Y11224D01*
X-4252Y11268D01*
X-4243Y11315D01*
X-4242Y11334D01*
X-4242Y11784D01*
X-4247Y11831D01*
X-4262Y11877D01*
X-4286Y11918D01*
X-4318Y11953D01*
X-4358Y11980D01*
X-4401Y11999D01*
X-4448Y12008D01*
X-4467Y12009D01*
G37*
G36*
G01X1583Y12109D02*
X1083Y12109D01*
X1035Y12104D01*
X990Y12089D01*
X949Y12065D01*
X914Y12032D01*
X886Y11993D01*
X868Y11949D01*
X859Y11902D01*
X858Y11884D01*
X858Y11434D01*
X863Y11386D01*
X878Y11341D01*
X902Y11300D01*
X934Y11265D01*
X973Y11237D01*
X1017Y11218D01*
X1064Y11209D01*
X1583Y11209D01*
X1630Y11214D01*
X1676Y11229D01*
X1717Y11253D01*
X1752Y11285D01*
X1780Y11324D01*
X1798Y11368D01*
X1807Y11415D01*
X1808Y11434D01*
X1808Y11884D01*
X1803Y11931D01*
X1788Y11977D01*
X1764Y12018D01*
X1732Y12053D01*
X1692Y12080D01*
X1649Y12099D01*
X1602Y12108D01*
X1583Y12109D01*
G37*
G36*
G01X213Y11514D02*
G75*
G03X333Y11634I0J120D01*
G74*
G01*
G75*
G03X213Y11754I-120J0D01*
G74*
G01*
X-447Y11754D01*
G75*
G03X-567Y11634I0J-120D01*
G74*
G01*
G75*
G03X-447Y11514I120J0D01*
G74*
G01*
X213Y11514D01*
G37*
G36*
G01X-2887Y11514D02*
G75*
G03X-2767Y11634I0J120D01*
G74*
G01*
G75*
G03X-2887Y11754I-120J0D01*
G74*
G01*
X-3547Y11754D01*
G75*
G03X-3667Y11634I0J-120D01*
G74*
G01*
G75*
G03X-3547Y11514I120J0D01*
G74*
G01*
X-2887Y11514D01*
G37*
G36*
G01X-967Y11584D02*
X-2367Y11584D01*
X-2367Y10184D01*
X-967Y10184D01*
X-967Y11584D01*
G37*
G36*
G01X-2887Y11014D02*
G75*
G03X-2767Y11134I0J120D01*
G74*
G01*
G75*
G03X-2887Y11254I-120J0D01*
G74*
G01*
X-3547Y11254D01*
G75*
G03X-3667Y11134I0J-120D01*
G74*
G01*
G75*
G03X-3547Y11014I120J0D01*
G74*
G01*
X-2887Y11014D01*
G37*
G36*
G01X-2887Y10514D02*
G75*
G03X-2767Y10634I0J120D01*
G74*
G01*
G75*
G03X-2887Y10754I-120J0D01*
G74*
G01*
X-3547Y10754D01*
G75*
G03X-3667Y10634I0J-120D01*
G74*
G01*
G75*
G03X-3547Y10514I120J0D01*
G74*
G01*
X-2887Y10514D01*
G37*
G36*
G01X-10800Y10724D02*
X-10828Y10721D01*
X-10854Y10709D01*
X-10862Y10701D01*
X-11005Y10559D01*
X-11021Y10536D01*
X-11028Y10508D01*
X-11028Y10503D01*
X-11023Y10475D01*
X-11008Y10451D01*
X-11005Y10447D01*
X-10892Y10334D01*
X-10869Y10318D01*
X-10841Y10311D01*
X-10813Y10314D01*
X-10788Y10327D01*
X-10780Y10334D01*
X-10637Y10476D01*
X-10621Y10500D01*
X-10614Y10527D01*
X-10614Y10533D01*
X-10619Y10560D01*
X-10634Y10585D01*
X-10750Y10701D01*
X-10773Y10717D01*
X-10800Y10724D01*
G37*
G36*
G01X-4467Y10459D02*
X-4967Y10459D01*
X-5015Y10454D01*
X-5060Y10439D01*
X-5101Y10415D01*
X-5136Y10382D01*
X-5164Y10343D01*
X-5182Y10299D01*
X-5191Y10252D01*
X-5192Y10234D01*
X-5192Y9784D01*
X-5187Y9736D01*
X-5172Y9691D01*
X-5148Y9650D01*
X-5116Y9615D01*
X-5077Y9587D01*
X-5033Y9568D01*
X-4986Y9559D01*
X-4467Y9559D01*
X-4420Y9564D01*
X-4374Y9579D01*
X-4333Y9603D01*
X-4298Y9635D01*
X-4270Y9674D01*
X-4252Y9718D01*
X-4243Y9765D01*
X-4242Y9784D01*
X-4242Y10234D01*
X-4247Y10281D01*
X-4262Y10327D01*
X-4286Y10368D01*
X-4318Y10403D01*
X-4358Y10430D01*
X-4401Y10449D01*
X-4448Y10458D01*
X-4467Y10459D01*
G37*
G36*
G01X-10312Y10236D02*
X-10340Y10234D01*
X-10366Y10221D01*
X-10375Y10213D01*
X-10517Y10071D01*
X-10533Y10048D01*
X-10540Y10021D01*
X-10540Y10015D01*
X-10535Y9987D01*
X-10520Y9963D01*
X-10517Y9959D01*
X-10404Y9846D01*
X-10381Y9830D01*
X-10353Y9823D01*
X-10325Y9826D01*
X-10300Y9839D01*
X-10292Y9846D01*
X-10150Y9988D01*
X-10133Y10012D01*
X-10126Y10039D01*
X-10126Y10045D01*
X-10131Y10073D01*
X-10146Y10097D01*
X-10262Y10213D01*
X-10285Y10229D01*
X-10312Y10236D01*
G37*
G36*
G01X-11800Y9824D02*
X-11828Y9821D01*
X-11854Y9809D01*
X-11862Y9801D01*
X-12005Y9659D01*
X-12021Y9636D01*
X-12028Y9608D01*
X-12028Y9603D01*
X-12023Y9575D01*
X-12008Y9551D01*
X-12005Y9547D01*
X-11892Y9434D01*
X-11869Y9418D01*
X-11841Y9411D01*
X-11813Y9414D01*
X-11788Y9427D01*
X-11780Y9434D01*
X-11637Y9576D01*
X-11621Y9600D01*
X-11614Y9627D01*
X-11614Y9633D01*
X-11619Y9660D01*
X-11634Y9685D01*
X-11750Y9801D01*
X-11773Y9817D01*
X-11800Y9824D01*
G37*
G36*
G01X-9800Y9724D02*
X-9828Y9721D01*
X-9854Y9709D01*
X-9862Y9701D01*
X-10005Y9559D01*
X-10021Y9536D01*
X-10028Y9508D01*
X-10028Y9503D01*
X-10023Y9475D01*
X-10008Y9451D01*
X-10005Y9447D01*
X-9892Y9334D01*
X-9869Y9318D01*
X-9841Y9311D01*
X-9813Y9314D01*
X-9788Y9327D01*
X-9780Y9334D01*
X-9637Y9476D01*
X-9621Y9500D01*
X-9614Y9527D01*
X-9614Y9533D01*
X-9619Y9560D01*
X-9634Y9585D01*
X-9750Y9701D01*
X-9773Y9717D01*
X-9800Y9724D01*
G37*
G36*
G01X-11312Y9336D02*
X-11340Y9334D01*
X-11366Y9321D01*
X-11375Y9313D01*
X-11517Y9171D01*
X-11533Y9148D01*
X-11540Y9121D01*
X-11540Y9115D01*
X-11535Y9087D01*
X-11520Y9063D01*
X-11517Y9059D01*
X-11404Y8946D01*
X-11381Y8930D01*
X-11354Y8923D01*
X-11325Y8926D01*
X-11300Y8939D01*
X-11292Y8946D01*
X-11150Y9088D01*
X-11133Y9112D01*
X-11126Y9139D01*
X-11126Y9145D01*
X-11131Y9173D01*
X-11146Y9197D01*
X-11262Y9313D01*
X-11285Y9329D01*
X-11312Y9336D01*
G37*
G36*
G01X-2887Y10014D02*
G75*
G03X-2767Y10134I0J120D01*
G74*
G01*
G75*
G03X-2887Y10254I-120J0D01*
G74*
G01*
X-3547Y10254D01*
G75*
G03X-3667Y10134I0J-120D01*
G74*
G01*
G75*
G03X-3547Y10014I120J0D01*
G74*
G01*
X-2887Y10014D01*
G37*
G36*
G01X213Y11014D02*
G75*
G03X333Y11134I0J120D01*
G74*
G01*
G75*
G03X213Y11254I-120J0D01*
G74*
G01*
X-447Y11254D01*
G75*
G03X-567Y11134I0J-120D01*
G74*
G01*
G75*
G03X-447Y11014I120J0D01*
G74*
G01*
X213Y11014D01*
G37*
G36*
G01X11841Y12061D02*
X11794Y12053D01*
X11750Y12035D01*
X11710Y12009D01*
X11695Y11995D01*
X11378Y11678D01*
X11348Y11641D01*
X11326Y11598D01*
X11314Y11552D01*
X11312Y11518D01*
X11317Y11471D01*
X11332Y11425D01*
X11356Y11384D01*
X11378Y11358D01*
X11730Y11006D01*
X11767Y10976D01*
X11810Y10954D01*
X11856Y10942D01*
X11904Y10940D01*
X11951Y10948D01*
X11995Y10965D01*
X12035Y10992D01*
X12050Y11006D01*
X12367Y11323D01*
X12397Y11360D01*
X12419Y11403D01*
X12431Y11449D01*
X12434Y11483D01*
X12428Y11530D01*
X12413Y11575D01*
X12389Y11617D01*
X12367Y11642D01*
X12015Y11995D01*
X11978Y12025D01*
X11935Y12047D01*
X11889Y12059D01*
X11841Y12061D01*
G37*
G36*
G01X16118Y12837D02*
X16090Y12834D01*
X16065Y12821D01*
X16056Y12814D01*
X15944Y12702D01*
X15928Y12679D01*
X15921Y12651D01*
X15921Y12645D01*
X15926Y12617D01*
X15940Y12593D01*
X16086Y12447D01*
X16109Y12431D01*
X16137Y12424D01*
X16165Y12427D01*
X16190Y12439D01*
X16199Y12447D01*
X16311Y12559D01*
X16327Y12582D01*
X16334Y12610D01*
X16335Y12616D01*
X16329Y12643D01*
X16315Y12668D01*
X16169Y12814D01*
X16146Y12830D01*
X16118Y12837D01*
G37*
G36*
G01X18523Y12488D02*
X18322Y12488D01*
X18295Y12483D01*
X18270Y12468D01*
X18253Y12446D01*
X18244Y12419D01*
X18243Y12408D01*
X18243Y12249D01*
X18248Y12221D01*
X18262Y12197D01*
X18284Y12179D01*
X18311Y12170D01*
X18523Y12170D01*
X18551Y12175D01*
X18576Y12189D01*
X18593Y12211D01*
X18602Y12238D01*
X18603Y12249D01*
X18603Y12408D01*
X18598Y12436D01*
X18584Y12460D01*
X18562Y12478D01*
X18535Y12487D01*
X18523Y12488D01*
G37*
G36*
G01X17873Y12488D02*
X17673Y12488D01*
X17645Y12483D01*
X17620Y12468D01*
X17603Y12446D01*
X17594Y12419D01*
X17593Y12408D01*
X17593Y12249D01*
X17598Y12221D01*
X17612Y12197D01*
X17634Y12179D01*
X17661Y12170D01*
X17873Y12170D01*
X17901Y12175D01*
X17926Y12189D01*
X17943Y12211D01*
X17952Y12238D01*
X17953Y12249D01*
X17953Y12408D01*
X17948Y12436D01*
X17934Y12461D01*
X17912Y12478D01*
X17885Y12487D01*
X17873Y12488D01*
G37*
G36*
G01X17223Y12488D02*
X17022Y12488D01*
X16995Y12483D01*
X16970Y12468D01*
X16953Y12446D01*
X16944Y12419D01*
X16943Y12408D01*
X16943Y12249D01*
X16948Y12221D01*
X16962Y12197D01*
X16984Y12179D01*
X17011Y12170D01*
X17223Y12170D01*
X17251Y12175D01*
X17276Y12189D01*
X17293Y12211D01*
X17302Y12238D01*
X17303Y12249D01*
X17303Y12408D01*
X17298Y12436D01*
X17284Y12460D01*
X17262Y12478D01*
X17235Y12487D01*
X17223Y12488D01*
G37*
G36*
G01X15630Y12349D02*
X15602Y12346D01*
X15577Y12333D01*
X15568Y12326D01*
X15456Y12214D01*
X15440Y12191D01*
X15433Y12163D01*
X15433Y12157D01*
X15438Y12129D01*
X15452Y12105D01*
X15598Y11959D01*
X15622Y11943D01*
X15649Y11936D01*
X15677Y11939D01*
X15702Y11952D01*
X15711Y11959D01*
X15823Y12071D01*
X15839Y12095D01*
X15846Y12122D01*
X15847Y12128D01*
X15842Y12156D01*
X15827Y12180D01*
X15681Y12326D01*
X15658Y12342D01*
X15630Y12349D01*
G37*
G36*
G01X23602Y12054D02*
X23443Y12054D01*
X23416Y12049D01*
X23391Y12034D01*
X23374Y12012D01*
X23365Y11985D01*
X23364Y11974D01*
X23364Y11773D01*
X23369Y11745D01*
X23383Y11721D01*
X23405Y11703D01*
X23432Y11694D01*
X23602Y11694D01*
X23630Y11699D01*
X23655Y11713D01*
X23672Y11735D01*
X23681Y11762D01*
X23682Y11773D01*
X23682Y11974D01*
X23677Y12002D01*
X23663Y12026D01*
X23641Y12044D01*
X23614Y12053D01*
X23602Y12054D01*
G37*
G36*
G01X22913Y12054D02*
X22753Y12054D01*
X22726Y12049D01*
X22701Y12034D01*
X22684Y12012D01*
X22675Y11985D01*
X22674Y11974D01*
X22674Y11773D01*
X22679Y11745D01*
X22693Y11721D01*
X22715Y11703D01*
X22742Y11694D01*
X22913Y11694D01*
X22940Y11699D01*
X22965Y11713D01*
X22982Y11735D01*
X22991Y11762D01*
X22992Y11773D01*
X22992Y11974D01*
X22987Y12002D01*
X22973Y12026D01*
X22951Y12044D01*
X22924Y12053D01*
X22913Y12054D01*
G37*
G36*
G01X13342Y11850D02*
X13304Y11845D01*
X13270Y11829D01*
X13245Y11809D01*
X13048Y11612D01*
X13025Y11582D01*
X13010Y11547D01*
X13006Y11512D01*
X13011Y11475D01*
X13026Y11440D01*
X13048Y11413D01*
X13287Y11173D01*
X13317Y11150D01*
X13352Y11136D01*
X13389Y11132D01*
X13426Y11137D01*
X13461Y11153D01*
X13486Y11173D01*
X13683Y11370D01*
X13706Y11400D01*
X13720Y11435D01*
X13725Y11470D01*
X13720Y11507D01*
X13705Y11542D01*
X13683Y11569D01*
X13444Y11809D01*
X13414Y11832D01*
X13379Y11846D01*
X13342Y11850D01*
G37*
G36*
G01X12663Y11172D02*
X12626Y11166D01*
X12591Y11150D01*
X12566Y11130D01*
X12369Y10933D01*
X12346Y10903D01*
X12332Y10868D01*
X12327Y10833D01*
X12332Y10796D01*
X12347Y10762D01*
X12369Y10734D01*
X12608Y10494D01*
X12638Y10471D01*
X12673Y10457D01*
X12710Y10453D01*
X12748Y10459D01*
X12782Y10474D01*
X12807Y10494D01*
X13004Y10691D01*
X13027Y10721D01*
X13042Y10756D01*
X13046Y10791D01*
X13041Y10828D01*
X13026Y10863D01*
X13004Y10891D01*
X12765Y11130D01*
X12735Y11153D01*
X12700Y11167D01*
X12663Y11172D01*
G37*
G36*
G01X213Y10514D02*
G75*
G03X333Y10634I0J120D01*
G74*
G01*
G75*
G03X213Y10754I-120J0D01*
G74*
G01*
X-447Y10754D01*
G75*
G03X-567Y10634I0J-120D01*
G74*
G01*
G75*
G03X-447Y10514I120J0D01*
G74*
G01*
X213Y10514D01*
G37*
G36*
G01X1583Y10559D02*
X1083Y10559D01*
X1035Y10554D01*
X990Y10539D01*
X949Y10515D01*
X914Y10482D01*
X886Y10443D01*
X868Y10399D01*
X859Y10352D01*
X858Y10334D01*
X858Y9884D01*
X863Y9836D01*
X878Y9791D01*
X902Y9750D01*
X934Y9715D01*
X973Y9687D01*
X1017Y9668D01*
X1064Y9659D01*
X1583Y9659D01*
X1630Y9664D01*
X1676Y9679D01*
X1717Y9703D01*
X1752Y9735D01*
X1780Y9774D01*
X1798Y9818D01*
X1807Y9865D01*
X1808Y9884D01*
X1808Y10334D01*
X1803Y10381D01*
X1788Y10427D01*
X1764Y10468D01*
X1732Y10503D01*
X1692Y10530D01*
X1649Y10549D01*
X1602Y10558D01*
X1583Y10559D01*
G37*
G36*
G01X213Y10014D02*
G75*
G03X333Y10134I0J120D01*
G74*
G01*
G75*
G03X213Y10254I-120J0D01*
G74*
G01*
X-447Y10254D01*
G75*
G03X-567Y10134I0J-120D01*
G74*
G01*
G75*
G03X-447Y10014I120J0D01*
G74*
G01*
X213Y10014D01*
G37*
G36*
G01X-797Y9664D02*
G75*
G03X-917Y9784I-120J0D01*
G74*
G01*
G75*
G03X-1037Y9664I0J-120D01*
G74*
G01*
X-1037Y9574D01*
G75*
G03X-1037Y9564I120J-10D01*
G74*
G01*
X-1037Y9004D01*
G75*
G03X-917Y8884I120J0D01*
G74*
G01*
G75*
G03X-797Y9004I0J120D01*
G74*
G01*
X-797Y9664D01*
G37*
G36*
G01X-1297Y9664D02*
G75*
G03X-1417Y9784I-120J0D01*
G74*
G01*
G75*
G03X-1537Y9664I0J-120D01*
G74*
G01*
X-1537Y9004D01*
G75*
G03X-1417Y8884I120J0D01*
G74*
G01*
G75*
G03X-1297Y9004I0J120D01*
G74*
G01*
X-1297Y9664D01*
G37*
G36*
G01X-1797Y9664D02*
G75*
G03X-1917Y9784I-120J0D01*
G74*
G01*
G75*
G03X-2037Y9664I0J-120D01*
G74*
G01*
X-2037Y9004D01*
G75*
G03X-1917Y8884I120J0D01*
G74*
G01*
G75*
G03X-1797Y9004I0J120D01*
G74*
G01*
X-1797Y9664D01*
G37*
G36*
G01X-2297Y9664D02*
G75*
G03X-2417Y9784I-120J0D01*
G74*
G01*
G75*
G03X-2537Y9664I0J-120D01*
G74*
G01*
X-2537Y9004D01*
G75*
G03X-2417Y8884I120J0D01*
G74*
G01*
G75*
G03X-2297Y9004I0J120D01*
G74*
G01*
X-2297Y9564D01*
G75*
G03X-2297Y9574I-120J0D01*
G74*
G01*
X-2297Y9664D01*
G37*
G36*
G01X-3232Y9264D02*
X-3602Y9264D01*
X-3639Y9259D01*
X-3673Y9244D01*
X-3701Y9221D01*
X-3722Y9190D01*
X-3735Y9155D01*
X-3737Y9129D01*
X-3737Y8859D01*
X-3732Y8822D01*
X-3717Y8788D01*
X-3694Y8760D01*
X-3664Y8738D01*
X-3629Y8726D01*
X-3602Y8724D01*
X-3232Y8724D01*
X-3195Y8729D01*
X-3162Y8743D01*
X-3133Y8767D01*
X-3112Y8797D01*
X-3100Y8832D01*
X-3097Y8859D01*
X-3097Y9129D01*
X-3102Y9165D01*
X-3117Y9199D01*
X-3140Y9228D01*
X-3170Y9249D01*
X-3205Y9261D01*
X-3232Y9264D01*
G37*
G36*
G01X-9312Y9236D02*
X-9340Y9234D01*
X-9366Y9221D01*
X-9375Y9213D01*
X-9517Y9071D01*
X-9533Y9048D01*
X-9540Y9021D01*
X-9540Y9015D01*
X-9535Y8987D01*
X-9520Y8963D01*
X-9517Y8959D01*
X-9404Y8846D01*
X-9381Y8830D01*
X-9353Y8823D01*
X-9325Y8826D01*
X-9300Y8839D01*
X-9292Y8846D01*
X-9150Y8988D01*
X-9133Y9012D01*
X-9126Y9039D01*
X-9126Y9045D01*
X-9131Y9073D01*
X-9146Y9097D01*
X-9262Y9213D01*
X-9285Y9229D01*
X-9312Y9236D01*
G37*
G36*
G01X-10800Y8824D02*
X-10828Y8821D01*
X-10854Y8809D01*
X-10862Y8801D01*
X-11005Y8659D01*
X-11021Y8636D01*
X-11028Y8608D01*
X-11028Y8603D01*
X-11023Y8575D01*
X-11008Y8551D01*
X-11005Y8547D01*
X-10892Y8434D01*
X-10869Y8418D01*
X-10841Y8411D01*
X-10813Y8414D01*
X-10788Y8427D01*
X-10780Y8434D01*
X-10637Y8576D01*
X-10621Y8600D01*
X-10614Y8627D01*
X-10614Y8633D01*
X-10619Y8660D01*
X-10634Y8685D01*
X-10750Y8801D01*
X-10773Y8817D01*
X-10800Y8824D01*
G37*
G36*
G01X17406Y11397D02*
G75*
G03X17436Y11467I-65J70D01*
G74*
G01*
G75*
G03X17341Y11562I-95J0D01*
G74*
G01*
G75*
G03X17274Y11534I0J-95D01*
G74*
G01*
X17208Y11468D01*
G75*
G03X17203Y11463I62J-72D01*
G74*
G01*
X16742Y11002D01*
G75*
G03X16708Y10929I61J-73D01*
G74*
G01*
G75*
G03X16803Y10834I95J0D01*
G74*
G01*
G75*
G03X16879Y10871I0J95D01*
G74*
G01*
X16937Y10929D01*
X16939Y10930D01*
G75*
G03X16949Y10941I-65J70D01*
G74*
G01*
X17333Y11325D01*
X17335Y11326D01*
G75*
G03X17346Y11338I-65J70D01*
G74*
G01*
X17404Y11396D01*
X17406Y11397D01*
G37*
G36*
G01X15598Y11534D02*
G75*
G03X15531Y11562I-67J-67D01*
G74*
G01*
G75*
G03X15435Y11467I0J-95D01*
G74*
G01*
G75*
G03X15469Y11394I96J0D01*
G74*
G01*
X15471Y11393D01*
X15525Y11339D01*
G75*
G03X15533Y11330I76J57D01*
G74*
G01*
X15995Y10868D01*
G75*
G03X16068Y10834I73J61D01*
G74*
G01*
G75*
G03X16163Y10929I0J95D01*
G74*
G01*
G75*
G03X16127Y11004I-95J0D01*
G74*
G01*
X16067Y11064D01*
X16067Y11065D01*
G75*
G03X16056Y11075I-70J-65D01*
G74*
G01*
X16055Y11076D01*
X15598Y11534D01*
G37*
G36*
G01X14114Y11399D02*
X14085Y11396D01*
X14060Y11383D01*
X14051Y11376D01*
X13940Y11264D01*
X13923Y11241D01*
X13916Y11213D01*
X13916Y11207D01*
X13921Y11179D01*
X13935Y11155D01*
X14081Y11009D01*
X14105Y10993D01*
X14132Y10986D01*
X14160Y10989D01*
X14186Y11001D01*
X14306Y11121D01*
X14323Y11145D01*
X14330Y11172D01*
X14330Y11178D01*
X14325Y11205D01*
X14310Y11230D01*
X14164Y11376D01*
X14141Y11392D01*
X14114Y11399D01*
G37*
G36*
G01X15315Y11251D02*
G75*
G03X15248Y11279I-67J-67D01*
G74*
G01*
G75*
G03X15153Y11184I0J-95D01*
G74*
G01*
G75*
G03X15184Y11113I95J0D01*
G74*
G01*
X15186Y11112D01*
X15243Y11055D01*
G75*
G03X15251Y11046I75J58D01*
G74*
G01*
X15714Y10583D01*
G75*
G03X15785Y10551I71J63D01*
G74*
G01*
G75*
G03X15881Y10646I0J95D01*
G74*
G01*
G75*
G03X15843Y10722I-96J0D01*
G74*
G01*
X15787Y10778D01*
X15787Y10779D01*
G75*
G03X15777Y10789I-72J-62D01*
G74*
G01*
X15315Y11251D01*
G37*
G36*
G01X15032Y10968D02*
G75*
G03X14965Y10996I-67J-67D01*
G74*
G01*
G75*
G03X14870Y10901I0J-95D01*
G74*
G01*
G75*
G03X14898Y10834I95J0D01*
G74*
G01*
X14961Y10771D01*
G75*
G03X14969Y10763I75J59D01*
G74*
G01*
X15435Y10296D01*
X15436Y10296D01*
G75*
G03X15502Y10269I66J67D01*
G74*
G01*
G75*
G03X15597Y10363I0J94D01*
G74*
G01*
G75*
G03X15559Y10440I-95J0D01*
G74*
G01*
X15506Y10493D01*
X15506Y10494D01*
G75*
G03X15492Y10508I-74J-60D01*
G74*
G01*
X15032Y10968D01*
G37*
G36*
G01X13626Y10911D02*
X13597Y10908D01*
X13572Y10895D01*
X13563Y10888D01*
X13452Y10776D01*
X13435Y10753D01*
X13428Y10725D01*
X13428Y10719D01*
X13433Y10691D01*
X13447Y10667D01*
X13593Y10521D01*
X13617Y10505D01*
X13644Y10498D01*
X13672Y10501D01*
X13698Y10514D01*
X13706Y10521D01*
X13818Y10633D01*
X13835Y10657D01*
X13842Y10684D01*
X13842Y10690D01*
X13837Y10718D01*
X13822Y10742D01*
X13676Y10888D01*
X13653Y10904D01*
X13626Y10911D01*
G37*
G36*
G01X14752Y10683D02*
G75*
G03X14682Y10714I-70J-65D01*
G74*
G01*
G75*
G03X14587Y10618I0J-96D01*
G74*
G01*
G75*
G03X14615Y10551I95J0D01*
G74*
G01*
X15076Y10090D01*
G75*
G03X15087Y10079I73J61D01*
G74*
G01*
X15089Y10078D01*
X15143Y10024D01*
G75*
G03X15220Y9985I77J57D01*
G74*
G01*
G75*
G03X15315Y10081I0J96D01*
G74*
G01*
G75*
G03X15285Y10150I-95J0D01*
G74*
G01*
X15284Y10151D01*
X14822Y10612D01*
X14822Y10613D01*
G75*
G03X14812Y10622I-69J-66D01*
G74*
G01*
X14752Y10682D01*
X14752Y10683D01*
G37*
G36*
G01X14471Y10398D02*
G75*
G03X14399Y10431I-72J-63D01*
G74*
G01*
G75*
G03X14304Y10335I0J-96D01*
G74*
G01*
G75*
G03X14332Y10268I95J0D01*
G74*
G01*
X14795Y9805D01*
G75*
G03X14803Y9797I71J63D01*
G74*
G01*
X14805Y9796D01*
X14861Y9740D01*
G75*
G03X14937Y9702I76J58D01*
G74*
G01*
G75*
G03X15032Y9798I0J96D01*
G74*
G01*
G75*
G03X15000Y9869I-95J0D01*
G74*
G01*
X14537Y10332D01*
G75*
G03X14528Y10340I-67J-67D01*
G74*
G01*
X14471Y10397D01*
X14471Y10398D01*
G37*
G36*
G01X14190Y10113D02*
G75*
G03X14116Y10148I-74J-61D01*
G74*
G01*
G75*
G03X14021Y10052I0J-96D01*
G74*
G01*
G75*
G03X14049Y9986I95J0D01*
G74*
G01*
X14049Y9985D01*
X14282Y9752D01*
X14284Y9751D01*
X14579Y9456D01*
G75*
G03X14654Y9420I75J59D01*
G74*
G01*
G75*
G03X14749Y9515I0J95D01*
G74*
G01*
G75*
G03X14715Y9588I-95J0D01*
G74*
G01*
X14254Y10049D01*
G75*
G03X14244Y10058I-67J-67D01*
G74*
G01*
X14190Y10112D01*
X14190Y10113D01*
G37*
G36*
G01X13901Y9837D02*
G75*
G03X13834Y9865I-67J-67D01*
G74*
G01*
G75*
G03X13738Y9770I0J-95D01*
G74*
G01*
G75*
G03X13772Y9697I96J0D01*
G74*
G01*
X13774Y9696D01*
X13827Y9643D01*
G75*
G03X13836Y9633I77J56D01*
G74*
G01*
X14298Y9171D01*
G75*
G03X14371Y9137I73J61D01*
G74*
G01*
G75*
G03X14466Y9232I0J95D01*
G74*
G01*
G75*
G03X14431Y9306I-95J0D01*
G74*
G01*
X14369Y9368D01*
X14369Y9369D01*
G75*
G03X14360Y9377I-69J-66D01*
G74*
G01*
X14359Y9378D01*
X13901Y9837D01*
G37*
G36*
G01X13618Y9554D02*
G75*
G03X13551Y9582I-67J-67D01*
G74*
G01*
G75*
G03X13456Y9487I0J-95D01*
G74*
G01*
G75*
G03X13488Y9415I95J0D01*
G74*
G01*
X13490Y9414D01*
X13545Y9359D01*
G75*
G03X13554Y9349I76J57D01*
G74*
G01*
X14016Y8887D01*
G75*
G03X14088Y8854I72J62D01*
G74*
G01*
G75*
G03X14184Y8949I0J95D01*
G74*
G01*
G75*
G03X14146Y9025I-96J0D01*
G74*
G01*
X14089Y9082D01*
X14089Y9083D01*
G75*
G03X14081Y9091I-71J-63D01*
G74*
G01*
X13618Y9554D01*
G37*
G36*
G01X13335Y9271D02*
G75*
G03X13268Y9299I-67J-67D01*
G74*
G01*
G75*
G03X13173Y9204I0J-95D01*
G74*
G01*
G75*
G03X13201Y9136I95J0D01*
G74*
G01*
X13203Y9135D01*
X13264Y9074D01*
G75*
G03X13272Y9065I75J59D01*
G74*
G01*
X13274Y9064D01*
X13736Y8601D01*
X13737Y8600D01*
G75*
G03X13805Y8571I68J66D01*
G74*
G01*
G75*
G03X13901Y8666I0J95D01*
G74*
G01*
G75*
G03X13862Y8743I-96J0D01*
G74*
G01*
X13808Y8797D01*
X13808Y8798D01*
G75*
G03X13796Y8810I-73J-61D01*
G74*
G01*
X13335Y9271D01*
G37*
G36*
G01X13052Y8988D02*
G75*
G03X12985Y9016I-67J-67D01*
G74*
G01*
G75*
G03X12890Y8921I0J-95D01*
G74*
G01*
G75*
G03X12918Y8854I95J0D01*
G74*
G01*
X13378Y8394D01*
G75*
G03X13391Y8381I74J60D01*
G74*
G01*
X13393Y8380D01*
X13446Y8327D01*
G75*
G03X13523Y8288I77J57D01*
G74*
G01*
G75*
G03X13618Y8384I0J96D01*
G74*
G01*
G75*
G03X13590Y8450I-95J0D01*
G74*
G01*
X13590Y8451D01*
X13123Y8917D01*
G75*
G03X13115Y8925I-67J-67D01*
G74*
G01*
X13052Y8988D01*
G37*
G36*
G01X868Y8764D02*
X498Y8764D01*
X461Y8759D01*
X427Y8744D01*
X399Y8721D01*
X378Y8690D01*
X365Y8655D01*
X363Y8629D01*
X363Y8359D01*
X368Y8322D01*
X383Y8288D01*
X406Y8260D01*
X436Y8238D01*
X471Y8226D01*
X498Y8224D01*
X868Y8224D01*
X905Y8229D01*
X938Y8243D01*
X967Y8267D01*
X988Y8297D01*
X1000Y8332D01*
X1003Y8359D01*
X1003Y8629D01*
X998Y8665D01*
X983Y8699D01*
X960Y8728D01*
X930Y8749D01*
X895Y8761D01*
X868Y8764D01*
G37*
G36*
G01X-517Y8359D02*
X-967Y8359D01*
X-1015Y8354D01*
X-1060Y8339D01*
X-1101Y8315D01*
X-1136Y8282D01*
X-1164Y8243D01*
X-1182Y8199D01*
X-1191Y8152D01*
X-1192Y8134D01*
X-1192Y7634D01*
X-1187Y7586D01*
X-1172Y7541D01*
X-1148Y7500D01*
X-1116Y7465D01*
X-1077Y7437D01*
X-1033Y7418D01*
X-986Y7409D01*
X-517Y7409D01*
X-470Y7414D01*
X-424Y7429D01*
X-383Y7453D01*
X-348Y7485D01*
X-320Y7524D01*
X-302Y7568D01*
X-293Y7615D01*
X-292Y7634D01*
X-292Y8134D01*
X-297Y8181D01*
X-312Y8227D01*
X-336Y8268D01*
X-368Y8303D01*
X-408Y8330D01*
X-451Y8349D01*
X-498Y8358D01*
X-517Y8359D01*
G37*
G36*
G01X-2067Y8359D02*
X-2517Y8359D01*
X-2565Y8354D01*
X-2610Y8339D01*
X-2651Y8315D01*
X-2686Y8282D01*
X-2714Y8243D01*
X-2732Y8199D01*
X-2741Y8152D01*
X-2742Y8134D01*
X-2742Y7634D01*
X-2737Y7586D01*
X-2722Y7541D01*
X-2698Y7500D01*
X-2666Y7465D01*
X-2627Y7437D01*
X-2583Y7418D01*
X-2536Y7409D01*
X-2067Y7409D01*
X-2020Y7414D01*
X-1974Y7429D01*
X-1933Y7453D01*
X-1898Y7485D01*
X-1870Y7524D01*
X-1852Y7568D01*
X-1843Y7615D01*
X-1842Y7634D01*
X-1842Y8134D01*
X-1847Y8181D01*
X-1862Y8227D01*
X-1886Y8268D01*
X-1918Y8303D01*
X-1958Y8330D01*
X-2001Y8349D01*
X-2048Y8358D01*
X-2067Y8359D01*
G37*
G36*
G01X-10312Y8336D02*
X-10340Y8334D01*
X-10366Y8321D01*
X-10375Y8313D01*
X-10517Y8171D01*
X-10533Y8148D01*
X-10540Y8121D01*
X-10540Y8115D01*
X-10535Y8087D01*
X-10520Y8063D01*
X-10517Y8059D01*
X-10404Y7946D01*
X-10381Y7930D01*
X-10353Y7923D01*
X-10325Y7926D01*
X-10300Y7939D01*
X-10292Y7946D01*
X-10150Y8088D01*
X-10133Y8112D01*
X-10126Y8139D01*
X-10126Y8145D01*
X-10131Y8173D01*
X-10146Y8197D01*
X-10262Y8313D01*
X-10285Y8329D01*
X-10312Y8336D01*
G37*
G36*
G01X-3232Y8244D02*
X-3602Y8244D01*
X-3639Y8239D01*
X-3673Y8224D01*
X-3701Y8201D01*
X-3722Y8170D01*
X-3735Y8135D01*
X-3737Y8109D01*
X-3737Y7839D01*
X-3732Y7802D01*
X-3717Y7768D01*
X-3694Y7740D01*
X-3664Y7718D01*
X-3629Y7706D01*
X-3602Y7704D01*
X-3232Y7704D01*
X-3195Y7709D01*
X-3162Y7723D01*
X-3133Y7747D01*
X-3112Y7777D01*
X-3100Y7812D01*
X-3097Y7839D01*
X-3097Y8109D01*
X-3102Y8145D01*
X-3117Y8179D01*
X-3140Y8208D01*
X-3170Y8229D01*
X-3205Y8241D01*
X-3232Y8244D01*
G37*
G36*
G01X12774Y8701D02*
G75*
G03X12702Y8734I-72J-63D01*
G74*
G01*
G75*
G03X12607Y8638I0J-96D01*
G74*
G01*
G75*
G03X12635Y8571I95J0D01*
G74*
G01*
X13097Y8109D01*
G75*
G03X13106Y8100I72J62D01*
G74*
G01*
X13108Y8099D01*
X13164Y8043D01*
G75*
G03X13240Y8005I76J58D01*
G74*
G01*
G75*
G03X13335Y8101I0J96D01*
G74*
G01*
G75*
G03X13303Y8172I-95J0D01*
G74*
G01*
X12840Y8635D01*
G75*
G03X12831Y8643I-67J-67D01*
G74*
G01*
X12774Y8700D01*
X12774Y8701D01*
G37*
G36*
G01X12492Y8417D02*
G75*
G03X12419Y8451I-73J-62D01*
G74*
G01*
G75*
G03X12324Y8355I0J-96D01*
G74*
G01*
G75*
G03X12351Y8289I95J0D01*
G74*
G01*
X12352Y8288D01*
X12810Y7831D01*
X12811Y7830D01*
G75*
G03X12821Y7819I75J59D01*
G74*
G01*
X12823Y7818D01*
X12882Y7759D01*
G75*
G03X12957Y7723I75J59D01*
G74*
G01*
G75*
G03X13052Y7818I0J95D01*
G74*
G01*
G75*
G03X13019Y7890I-95J0D01*
G74*
G01*
X12557Y8352D01*
G75*
G03X12547Y8361I-67J-67D01*
G74*
G01*
X12492Y8416D01*
X12492Y8417D01*
G37*
G36*
G01X12203Y8140D02*
G75*
G03X12137Y8167I-66J-67D01*
G74*
G01*
G75*
G03X12042Y8073I0J-94D01*
G74*
G01*
G75*
G03X12076Y7999I95J0D01*
G74*
G01*
X12078Y7998D01*
X12130Y7946D01*
G75*
G03X12140Y7935I77J56D01*
G74*
G01*
X12600Y7475D01*
G75*
G03X12674Y7440I74J60D01*
G74*
G01*
G75*
G03X12769Y7535I0J95D01*
G74*
G01*
G75*
G03X12734Y7609I-95J0D01*
G74*
G01*
X12437Y7906D01*
X12437Y7907D01*
X12204Y8140D01*
X12203Y8140D01*
G37*
G36*
G01X11921Y7857D02*
G75*
G03X11854Y7885I-67J-67D01*
G74*
G01*
G75*
G03X11758Y7790I0J-95D01*
G74*
G01*
G75*
G03X11791Y7718I96J0D01*
G74*
G01*
X11793Y7717D01*
X11848Y7662D01*
G75*
G03X11857Y7652I76J57D01*
G74*
G01*
X12319Y7190D01*
G75*
G03X12391Y7157I72J62D01*
G74*
G01*
G75*
G03X12486Y7252I0J95D01*
G74*
G01*
G75*
G03X12450Y7327I-95J0D01*
G74*
G01*
X12391Y7386D01*
X12391Y7387D01*
G75*
G03X12379Y7398I-71J-64D01*
G74*
G01*
X12154Y7623D01*
X12154Y7624D01*
X11921Y7857D01*
G37*
G36*
G01X868Y7744D02*
X498Y7744D01*
X461Y7739D01*
X427Y7724D01*
X399Y7701D01*
X378Y7670D01*
X365Y7635D01*
X363Y7609D01*
X363Y7339D01*
X368Y7302D01*
X383Y7268D01*
X406Y7240D01*
X436Y7218D01*
X471Y7206D01*
X498Y7204D01*
X868Y7204D01*
X905Y7209D01*
X938Y7223D01*
X967Y7247D01*
X988Y7277D01*
X1000Y7312D01*
X1003Y7339D01*
X1003Y7609D01*
X998Y7645D01*
X983Y7679D01*
X960Y7708D01*
X930Y7729D01*
X895Y7741D01*
X868Y7744D01*
G37*
G36*
G01X19947Y11554D02*
X19789Y11554D01*
X19761Y11549D01*
X19736Y11534D01*
X19719Y11512D01*
X19710Y11485D01*
X19709Y11474D01*
X19709Y11273D01*
X19714Y11245D01*
X19728Y11221D01*
X19750Y11203D01*
X19777Y11194D01*
X19947Y11194D01*
X19975Y11199D01*
X20000Y11213D01*
X20017Y11235D01*
X20026Y11262D01*
X20027Y11273D01*
X20027Y11474D01*
X20022Y11502D01*
X20008Y11526D01*
X19986Y11544D01*
X19959Y11553D01*
X19947Y11554D01*
G37*
G36*
G01X19257Y11554D02*
X19098Y11554D01*
X19071Y11549D01*
X19046Y11534D01*
X19029Y11512D01*
X19020Y11485D01*
X19019Y11474D01*
X19019Y11273D01*
X19024Y11245D01*
X19038Y11221D01*
X19060Y11203D01*
X19087Y11194D01*
X19257Y11194D01*
X19285Y11199D01*
X19310Y11213D01*
X19327Y11235D01*
X19336Y11262D01*
X19337Y11273D01*
X19337Y11474D01*
X19332Y11502D01*
X19318Y11526D01*
X19296Y11544D01*
X19269Y11553D01*
X19257Y11554D01*
G37*
G36*
G01X17692Y11118D02*
G75*
G03X17719Y11184I-68J66D01*
G74*
G01*
G75*
G03X17624Y11279I-95J0D01*
G74*
G01*
G75*
G03X17557Y11251I0J-95D01*
G74*
G01*
X17026Y10720D01*
G75*
G03X16991Y10646I60J-74D01*
G74*
G01*
G75*
G03X17086Y10551I95J0D01*
G74*
G01*
G75*
G03X17160Y10586I0J95D01*
G74*
G01*
X17692Y11118D01*
G37*
G36*
G01X24128Y11424D02*
X23328Y11424D01*
X23328Y10524D01*
X24128Y10524D01*
X24128Y11424D01*
G37*
G36*
G01X23028Y11424D02*
X22228Y11424D01*
X22228Y10524D01*
X23028Y10524D01*
X23028Y11424D01*
G37*
G36*
G01X17975Y10835D02*
G75*
G03X18002Y10901I-68J66D01*
G74*
G01*
G75*
G03X17907Y10996I-95J0D01*
G74*
G01*
G75*
G03X17836Y10965I0J-95D01*
G74*
G01*
X17836Y10964D01*
X17777Y10905D01*
G75*
G03X17765Y10894I59J-75D01*
G74*
G01*
X17765Y10893D01*
X17381Y10509D01*
G75*
G03X17369Y10498I59J-75D01*
G74*
G01*
X17369Y10497D01*
X17310Y10438D01*
G75*
G03X17274Y10363I59J-75D01*
G74*
G01*
G75*
G03X17369Y10268I95J0D01*
G74*
G01*
G75*
G03X17442Y10302I0J95D01*
G74*
G01*
X17975Y10835D01*
G37*
G36*
G01X18254Y10548D02*
G75*
G03X18285Y10618I-65J70D01*
G74*
G01*
G75*
G03X18189Y10713I-96J0D01*
G74*
G01*
G75*
G03X18122Y10685I0J-95D01*
G74*
G01*
X17889Y10452D01*
X17889Y10451D01*
X17591Y10154D01*
X17590Y10153D01*
G75*
G03X17557Y10081I62J-72D01*
G74*
G01*
G75*
G03X17652Y9985I95J0D01*
G74*
G01*
G75*
G03X17727Y10022I0J96D01*
G74*
G01*
X17785Y10080D01*
X17787Y10081D01*
G75*
G03X17793Y10087I-64J70D01*
G74*
G01*
X18187Y10481D01*
G75*
G03X18194Y10489I-68J66D01*
G74*
G01*
X18252Y10547D01*
X18254Y10548D01*
G37*
G36*
G01X20078Y10554D02*
X19919Y10554D01*
X19891Y10549D01*
X19867Y10534D01*
X19849Y10512D01*
X19840Y10485D01*
X19839Y10474D01*
X19839Y10273D01*
X19844Y10245D01*
X19859Y10221D01*
X19881Y10203D01*
X19908Y10194D01*
X20078Y10194D01*
X20106Y10199D01*
X20130Y10213D01*
X20148Y10235D01*
X20157Y10262D01*
X20157Y10474D01*
X20152Y10502D01*
X20138Y10526D01*
X20116Y10544D01*
X20089Y10553D01*
X20078Y10554D01*
G37*
G36*
G01X19388Y10554D02*
X19229Y10554D01*
X19201Y10549D01*
X19177Y10534D01*
X19159Y10512D01*
X19150Y10485D01*
X19149Y10474D01*
X19149Y10273D01*
X19154Y10245D01*
X19169Y10221D01*
X19191Y10203D01*
X19218Y10194D01*
X19388Y10194D01*
X19416Y10199D01*
X19440Y10213D01*
X19458Y10235D01*
X19467Y10262D01*
X19467Y10474D01*
X19462Y10502D01*
X19448Y10526D01*
X19426Y10544D01*
X19399Y10553D01*
X19388Y10554D01*
G37*
G36*
G01X18539Y10268D02*
G75*
G03X18567Y10335I-67J67D01*
G74*
G01*
G75*
G03X18472Y10430I-95J0D01*
G74*
G01*
G75*
G03X18405Y10402I0J-95D01*
G74*
G01*
X17874Y9871D01*
G75*
G03X17840Y9798I61J-73D01*
G74*
G01*
G75*
G03X17935Y9703I95J0D01*
G74*
G01*
G75*
G03X18009Y9738I0J95D01*
G74*
G01*
X18539Y10268D01*
G37*
G36*
G01X18822Y9985D02*
G75*
G03X18850Y10052I-67J67D01*
G74*
G01*
G75*
G03X18755Y10147I-95J0D01*
G74*
G01*
G75*
G03X18685Y10117I0J-95D01*
G74*
G01*
X18685Y10116D01*
X18626Y10057D01*
G75*
G03X18617Y10049I58J-75D01*
G74*
G01*
X18223Y9655D01*
G75*
G03X18218Y9650I65J-69D01*
G74*
G01*
X18218Y9649D01*
X18159Y9590D01*
G75*
G03X18122Y9515I59J-75D01*
G74*
G01*
G75*
G03X18218Y9420I96J0D01*
G74*
G01*
G75*
G03X18291Y9454I0J95D01*
G74*
G01*
X18292Y9455D01*
X18588Y9752D01*
X18590Y9753D01*
X18822Y9985D01*
G37*
G36*
G01X24128Y10024D02*
X23328Y10024D01*
X23328Y9124D01*
X24128Y9124D01*
X24128Y10024D01*
G37*
G36*
G01X23028Y10024D02*
X22228Y10024D01*
X22228Y9124D01*
X23028Y9124D01*
X23028Y10024D01*
G37*
G36*
G01X19102Y9699D02*
G75*
G03X19133Y9770I-64J71D01*
G74*
G01*
G75*
G03X19038Y9865I-95J0D01*
G74*
G01*
G75*
G03X18971Y9837I0J-95D01*
G74*
G01*
X18905Y9771D01*
G75*
G03X18900Y9766I62J-72D01*
G74*
G01*
X18438Y9304D01*
G75*
G03X18405Y9232I62J-72D01*
G74*
G01*
G75*
G03X18500Y9137I95J0D01*
G74*
G01*
G75*
G03X18576Y9174I0J95D01*
G74*
G01*
X18633Y9231D01*
X18635Y9232D01*
G75*
G03X18647Y9245I-64J71D01*
G74*
G01*
X19029Y9627D01*
X19031Y9628D01*
G75*
G03X19043Y9641I-64J71D01*
G74*
G01*
X19100Y9698D01*
X19102Y9699D01*
G37*
G36*
G01X16436Y9147D02*
X15823Y8534D01*
X16436Y7922D01*
X17049Y8534D01*
X16436Y9147D01*
G37*
G36*
G01X15611Y8322D02*
X14998Y7710D01*
X15611Y7097D01*
X16224Y7710D01*
X15611Y8322D01*
G37*
G36*
G01X14786Y7497D02*
X14173Y6885D01*
X14786Y6272D01*
X15399Y6885D01*
X14786Y7497D01*
G37*
G36*
G01X-482Y6664D02*
X-852Y6664D01*
X-889Y6659D01*
X-923Y6644D01*
X-951Y6621D01*
X-972Y6590D01*
X-985Y6555D01*
X-987Y6529D01*
X-987Y6259D01*
X-982Y6222D01*
X-967Y6188D01*
X-944Y6160D01*
X-914Y6138D01*
X-879Y6126D01*
X-852Y6124D01*
X-482Y6124D01*
X-445Y6129D01*
X-412Y6143D01*
X-383Y6167D01*
X-362Y6197D01*
X-350Y6232D01*
X-347Y6259D01*
X-347Y6529D01*
X-352Y6565D01*
X-367Y6599D01*
X-390Y6628D01*
X-420Y6649D01*
X-455Y6661D01*
X-482Y6664D01*
G37*
G36*
G01X-1482Y6664D02*
X-1852Y6664D01*
X-1889Y6659D01*
X-1923Y6644D01*
X-1951Y6621D01*
X-1972Y6590D01*
X-1985Y6555D01*
X-1987Y6529D01*
X-1987Y6259D01*
X-1982Y6222D01*
X-1967Y6188D01*
X-1944Y6160D01*
X-1914Y6138D01*
X-1879Y6126D01*
X-1852Y6124D01*
X-1482Y6124D01*
X-1445Y6129D01*
X-1412Y6143D01*
X-1383Y6167D01*
X-1362Y6197D01*
X-1350Y6232D01*
X-1347Y6259D01*
X-1347Y6529D01*
X-1352Y6565D01*
X-1367Y6599D01*
X-1390Y6628D01*
X-1420Y6649D01*
X-1455Y6661D01*
X-1482Y6664D01*
G37*
G36*
G01X12456Y6447D02*
G75*
G03X12487Y6517I-65J70D01*
G74*
G01*
G75*
G03X12391Y6612I-96J0D01*
G74*
G01*
G75*
G03X12324Y6584I0J-95D01*
G74*
G01*
X11863Y6123D01*
G75*
G03X11851Y6111I61J-73D01*
G74*
G01*
X11851Y6110D01*
X11796Y6055D01*
G75*
G03X11759Y5979I58J-76D01*
G74*
G01*
G75*
G03X11854Y5884I95J0D01*
G74*
G01*
G75*
G03X11924Y5915I0J95D01*
G74*
G01*
X11925Y5916D01*
X12384Y6376D01*
X12386Y6377D01*
G75*
G03X12396Y6388I-66J69D01*
G74*
G01*
X12454Y6446D01*
X12456Y6447D01*
G37*
G36*
G01X12742Y6168D02*
G75*
G03X12769Y6234I-68J66D01*
G74*
G01*
G75*
G03X12674Y6329I-95J0D01*
G74*
G01*
G75*
G03X12607Y6301I0J-95D01*
G74*
G01*
X12076Y5770D01*
G75*
G03X12041Y5697I61J-73D01*
G74*
G01*
G75*
G03X12137Y5601I96J0D01*
G74*
G01*
G75*
G03X12211Y5637I0J96D01*
G74*
G01*
X12742Y6168D01*
G37*
G36*
G01X-8042Y5824D02*
X-8070Y5821D01*
X-8095Y5809D01*
X-8105Y5801D01*
X-8216Y5689D01*
X-8233Y5666D01*
X-8240Y5639D01*
X-8240Y5633D01*
X-8235Y5605D01*
X-8220Y5580D01*
X-8217Y5576D01*
X-8075Y5434D01*
X-8051Y5418D01*
X-8024Y5411D01*
X-7996Y5414D01*
X-7970Y5427D01*
X-7962Y5434D01*
X-7850Y5546D01*
X-7834Y5569D01*
X-7826Y5597D01*
X-7826Y5603D01*
X-7831Y5631D01*
X-7846Y5655D01*
X-7850Y5660D01*
X-7991Y5801D01*
X-8014Y5817D01*
X-8042Y5824D01*
G37*
G36*
G01X-482Y5644D02*
X-852Y5644D01*
X-889Y5639D01*
X-923Y5624D01*
X-951Y5601D01*
X-972Y5570D01*
X-985Y5535D01*
X-987Y5509D01*
X-987Y5239D01*
X-982Y5202D01*
X-967Y5168D01*
X-944Y5140D01*
X-914Y5118D01*
X-879Y5106D01*
X-852Y5104D01*
X-482Y5104D01*
X-445Y5109D01*
X-412Y5123D01*
X-383Y5147D01*
X-362Y5177D01*
X-350Y5212D01*
X-347Y5239D01*
X-347Y5509D01*
X-352Y5545D01*
X-367Y5579D01*
X-390Y5608D01*
X-420Y5629D01*
X-455Y5641D01*
X-482Y5644D01*
G37*
G36*
G01X-1482Y5644D02*
X-1852Y5644D01*
X-1889Y5639D01*
X-1923Y5624D01*
X-1951Y5601D01*
X-1972Y5570D01*
X-1985Y5535D01*
X-1987Y5509D01*
X-1987Y5239D01*
X-1982Y5202D01*
X-1967Y5168D01*
X-1944Y5140D01*
X-1914Y5118D01*
X-1879Y5106D01*
X-1852Y5104D01*
X-1482Y5104D01*
X-1445Y5109D01*
X-1412Y5123D01*
X-1383Y5147D01*
X-1362Y5177D01*
X-1350Y5212D01*
X-1347Y5239D01*
X-1347Y5509D01*
X-1352Y5545D01*
X-1367Y5579D01*
X-1390Y5608D01*
X-1420Y5629D01*
X-1455Y5641D01*
X-1482Y5644D01*
G37*
G36*
G01X-8530Y5336D02*
X-8558Y5334D01*
X-8583Y5321D01*
X-8592Y5313D01*
X-8704Y5201D01*
X-8721Y5178D01*
X-8728Y5151D01*
X-8728Y5145D01*
X-8723Y5117D01*
X-8708Y5092D01*
X-8705Y5088D01*
X-8562Y4946D01*
X-8539Y4930D01*
X-8512Y4923D01*
X-8484Y4926D01*
X-8458Y4939D01*
X-8450Y4947D01*
X-8338Y5058D01*
X-8321Y5081D01*
X-8314Y5109D01*
X-8314Y5115D01*
X-8319Y5143D01*
X-8334Y5167D01*
X-8338Y5172D01*
X-8479Y5313D01*
X-8502Y5329D01*
X-8530Y5336D01*
G37*
G36*
G01X19389Y9421D02*
G75*
G03X19416Y9487I-68J66D01*
G74*
G01*
G75*
G03X19321Y9582I-95J0D01*
G74*
G01*
G75*
G03X19254Y9554I0J-95D01*
G74*
G01*
X18723Y9023D01*
G75*
G03X18688Y8949I60J-74D01*
G74*
G01*
G75*
G03X18783Y8854I95J0D01*
G74*
G01*
G75*
G03X18858Y8890I0J95D01*
G74*
G01*
X19389Y9421D01*
G37*
G36*
G01X19672Y9138D02*
G75*
G03X19699Y9204I-68J66D01*
G74*
G01*
G75*
G03X19604Y9299I-95J0D01*
G74*
G01*
G75*
G03X19534Y9269I0J-95D01*
G74*
G01*
X19534Y9268D01*
X19474Y9208D01*
G75*
G03X19464Y9199I59J-75D01*
G74*
G01*
X19464Y9198D01*
X19078Y8812D01*
G75*
G03X19067Y8802I59J-75D01*
G74*
G01*
X19067Y8801D01*
X19007Y8741D01*
G75*
G03X18971Y8666I59J-75D01*
G74*
G01*
G75*
G03X19066Y8571I95J0D01*
G74*
G01*
G75*
G03X19139Y8605I0J95D01*
G74*
G01*
X19600Y9066D01*
G75*
G03X19606Y9072I-67J67D01*
G74*
G01*
X19672Y9138D01*
G37*
G36*
G01X19954Y8854D02*
G75*
G03X19982Y8921I-67J67D01*
G74*
G01*
G75*
G03X19887Y9016I-95J0D01*
G74*
G01*
G75*
G03X19814Y8983I0J-95D01*
G74*
G01*
X19814Y8982D01*
X19758Y8926D01*
G75*
G03X19744Y8913I58J-76D01*
G74*
G01*
X19744Y8912D01*
X19287Y8456D01*
X19286Y8455D01*
G75*
G03X19254Y8384I63J-71D01*
G74*
G01*
G75*
G03X19349Y8288I95J0D01*
G74*
G01*
G75*
G03X19425Y8326I0J96D01*
G74*
G01*
X19481Y8382D01*
X19483Y8383D01*
G75*
G03X19491Y8391I-63J71D01*
G74*
G01*
X19954Y8854D01*
G37*
G36*
G01X17261Y8322D02*
X16648Y7710D01*
X17261Y7097D01*
X17874Y7710D01*
X17261Y8322D01*
G37*
G36*
G01X16436Y7497D02*
X15823Y6885D01*
X16436Y6272D01*
X17049Y6885D01*
X16436Y7497D01*
G37*
G36*
G01X15611Y6673D02*
X14998Y6060D01*
X15611Y5447D01*
X16224Y6060D01*
X15611Y6673D01*
G37*
G36*
G01X13024Y5884D02*
G75*
G03X13052Y5951I-67J67D01*
G74*
G01*
G75*
G03X12957Y6046I-95J0D01*
G74*
G01*
G75*
G03X12886Y6015I0J-95D01*
G74*
G01*
X12886Y6014D01*
X12828Y5956D01*
G75*
G03X12819Y5948I58J-75D01*
G74*
G01*
X12355Y5484D01*
G75*
G03X12324Y5414I64J-70D01*
G74*
G01*
G75*
G03X12419Y5318I95J0D01*
G74*
G01*
G75*
G03X12496Y5357I0J96D01*
G74*
G01*
X12550Y5411D01*
X12552Y5412D01*
G75*
G03X12563Y5423I-62J72D01*
G74*
G01*
X13024Y5884D01*
G37*
G36*
G01X13307Y5601D02*
G75*
G03X13335Y5668I-67J67D01*
G74*
G01*
G75*
G03X13240Y5764I-95J0D01*
G74*
G01*
G75*
G03X13167Y5730I0J-96D01*
G74*
G01*
X13167Y5729D01*
X13112Y5674D01*
G75*
G03X13102Y5665I57J-76D01*
G74*
G01*
X12640Y5203D01*
G75*
G03X12607Y5131I62J-72D01*
G74*
G01*
G75*
G03X12702Y5036I95J0D01*
G74*
G01*
G75*
G03X12778Y5073I0J95D01*
G74*
G01*
X12836Y5131D01*
X12838Y5132D01*
G75*
G03X12848Y5143I-65J70D01*
G74*
G01*
X13073Y5368D01*
X13075Y5369D01*
X13307Y5601D01*
G37*
G36*
G01X13590Y5319D02*
G75*
G03X13617Y5386I-67J67D01*
G74*
G01*
G75*
G03X13523Y5480I-94J0D01*
G74*
G01*
G75*
G03X13456Y5453I0J-94D01*
G74*
G01*
X12925Y4922D01*
G75*
G03X12890Y4848I60J-74D01*
G74*
G01*
G75*
G03X12985Y4753I95J0D01*
G74*
G01*
G75*
G03X13059Y4788I0J95D01*
G74*
G01*
X13519Y5248D01*
G75*
G03X13526Y5255I-67J67D01*
G74*
G01*
X13590Y5319D01*
G37*
G36*
G01X20800Y8924D02*
X20772Y8921D01*
X20746Y8909D01*
X20737Y8901D01*
X20596Y8759D01*
X20580Y8736D01*
X20572Y8709D01*
X20572Y8703D01*
X20577Y8675D01*
X20592Y8651D01*
X20596Y8646D01*
X20708Y8534D01*
X20731Y8518D01*
X20758Y8511D01*
X20786Y8514D01*
X20812Y8527D01*
X20821Y8534D01*
X20963Y8676D01*
X20979Y8700D01*
X20986Y8727D01*
X20986Y8733D01*
X20981Y8760D01*
X20966Y8785D01*
X20962Y8789D01*
X20851Y8901D01*
X20827Y8917D01*
X20800Y8924D01*
G37*
G36*
G01X20237Y8572D02*
G75*
G03X20264Y8638I-68J66D01*
G74*
G01*
G75*
G03X20169Y8733I-95J0D01*
G74*
G01*
G75*
G03X20102Y8705I0J-95D01*
G74*
G01*
X19571Y8174D01*
G75*
G03X19537Y8101I61J-73D01*
G74*
G01*
G75*
G03X19632Y8005I95J0D01*
G74*
G01*
G75*
G03X19707Y8042I0J96D01*
G74*
G01*
X19769Y8104D01*
X19770Y8104D01*
X20236Y8571D01*
X20237Y8572D01*
G37*
G36*
G01X23602Y8854D02*
X23443Y8854D01*
X23416Y8849D01*
X23391Y8834D01*
X23374Y8812D01*
X23365Y8785D01*
X23364Y8774D01*
X23364Y8573D01*
X23369Y8545D01*
X23383Y8521D01*
X23405Y8503D01*
X23432Y8494D01*
X23602Y8494D01*
X23630Y8499D01*
X23655Y8513D01*
X23672Y8535D01*
X23681Y8562D01*
X23682Y8573D01*
X23682Y8774D01*
X23677Y8802D01*
X23663Y8826D01*
X23641Y8844D01*
X23614Y8853D01*
X23602Y8854D01*
G37*
G36*
G01X22913Y8854D02*
X22753Y8854D01*
X22726Y8849D01*
X22701Y8834D01*
X22684Y8812D01*
X22675Y8785D01*
X22674Y8774D01*
X22674Y8573D01*
X22679Y8545D01*
X22693Y8521D01*
X22715Y8503D01*
X22742Y8494D01*
X22913Y8494D01*
X22940Y8499D01*
X22965Y8513D01*
X22982Y8535D01*
X22991Y8562D01*
X22992Y8573D01*
X22992Y8774D01*
X22987Y8802D01*
X22973Y8826D01*
X22951Y8844D01*
X22924Y8853D01*
X22913Y8854D01*
G37*
G36*
G01X20520Y8289D02*
G75*
G03X20547Y8355I-68J66D01*
G74*
G01*
G75*
G03X20452Y8450I-95J0D01*
G74*
G01*
G75*
G03X20384Y8422I0J-95D01*
G74*
G01*
X20384Y8421D01*
X20322Y8359D01*
G75*
G03X20313Y8351I60J-74D01*
G74*
G01*
X20313Y8350D01*
X19919Y7957D01*
X19917Y7955D01*
X19917Y7954D01*
X19855Y7892D01*
G75*
G03X19819Y7818I60J-74D01*
G74*
G01*
G75*
G03X19915Y7723I96J0D01*
G74*
G01*
G75*
G03X19988Y7757I0J95D01*
G74*
G01*
X20520Y8289D01*
G37*
G36*
G01X21288Y8436D02*
X21260Y8434D01*
X21234Y8421D01*
X21225Y8413D01*
X21084Y8272D01*
X21067Y8248D01*
X21060Y8221D01*
X21060Y8215D01*
X21065Y8187D01*
X21080Y8163D01*
X21084Y8158D01*
X21195Y8047D01*
X21219Y8030D01*
X21246Y8023D01*
X21274Y8026D01*
X21300Y8039D01*
X21308Y8046D01*
X21451Y8188D01*
X21467Y8212D01*
X21474Y8239D01*
X21474Y8245D01*
X21469Y8273D01*
X21454Y8297D01*
X21338Y8413D01*
X21315Y8429D01*
X21288Y8436D01*
G37*
G36*
G01X20798Y8001D02*
G75*
G03X20830Y8073I-63J72D01*
G74*
G01*
G75*
G03X20735Y8168I-95J0D01*
G74*
G01*
G75*
G03X20668Y8140I0J-95D01*
G74*
G01*
X20205Y7677D01*
G75*
G03X20196Y7668I63J-71D01*
G74*
G01*
X20196Y7667D01*
X20139Y7610D01*
G75*
G03X20102Y7535I59J-75D01*
G74*
G01*
G75*
G03X20198Y7440I96J0D01*
G74*
G01*
G75*
G03X20269Y7472I0J95D01*
G74*
G01*
X20270Y7473D01*
X20725Y7929D01*
X20727Y7930D01*
G75*
G03X20740Y7944I-63J72D01*
G74*
G01*
X20796Y8000D01*
X20798Y8001D01*
G37*
G36*
G01X18086Y7497D02*
X17473Y6885D01*
X18086Y6272D01*
X18699Y6885D01*
X18086Y7497D01*
G37*
G36*
G01X17261Y6673D02*
X16648Y6060D01*
X17261Y5447D01*
X17874Y6060D01*
X17261Y6673D01*
G37*
G36*
G01X16436Y5848D02*
X15823Y5235D01*
X16436Y4622D01*
X17049Y5235D01*
X16436Y5848D01*
G37*
G36*
G01X13867Y5030D02*
G75*
G03X13901Y5103I-62J73D01*
G74*
G01*
G75*
G03X13805Y5198I-96J0D01*
G74*
G01*
G75*
G03X13738Y5170I0J-95D01*
G74*
G01*
X13281Y4712D01*
X13280Y4711D01*
G75*
G03X13268Y4700I59J-75D01*
G74*
G01*
X13268Y4699D01*
X13209Y4640D01*
G75*
G03X13173Y4565I59J-75D01*
G74*
G01*
G75*
G03X13268Y4470I95J0D01*
G74*
G01*
G75*
G03X13341Y4504I0J95D01*
G74*
G01*
X13802Y4965D01*
G75*
G03X13811Y4975I-67J67D01*
G74*
G01*
X13865Y5029D01*
X13867Y5030D01*
G37*
G36*
G01X12514Y4741D02*
X12486Y4738D01*
X12460Y4725D01*
X12451Y4717D01*
X12310Y4576D01*
X12294Y4553D01*
X12286Y4525D01*
X12286Y4519D01*
X12291Y4491D01*
X12306Y4467D01*
X12422Y4351D01*
X12445Y4334D01*
X12472Y4327D01*
X12500Y4330D01*
X12526Y4343D01*
X12535Y4350D01*
X12677Y4493D01*
X12693Y4516D01*
X12700Y4543D01*
X12700Y4549D01*
X12695Y4577D01*
X12680Y4601D01*
X12676Y4606D01*
X12565Y4717D01*
X12541Y4734D01*
X12514Y4741D01*
G37*
G36*
G01X8848Y4554D02*
X8689Y4554D01*
X8661Y4549D01*
X8636Y4534D01*
X8619Y4512D01*
X8610Y4485D01*
X8609Y4474D01*
X8609Y4273D01*
X8614Y4245D01*
X8628Y4221D01*
X8650Y4203D01*
X8677Y4194D01*
X8848Y4194D01*
X8875Y4199D01*
X8900Y4213D01*
X8917Y4235D01*
X8926Y4262D01*
X8927Y4273D01*
X8927Y4474D01*
X8922Y4502D01*
X8908Y4526D01*
X8886Y4544D01*
X8859Y4553D01*
X8848Y4554D01*
G37*
G36*
G01X8157Y4554D02*
X7998Y4554D01*
X7971Y4549D01*
X7946Y4534D01*
X7929Y4512D01*
X7920Y4485D01*
X7919Y4474D01*
X7919Y4273D01*
X7924Y4245D01*
X7938Y4221D01*
X7960Y4203D01*
X7987Y4194D01*
X8157Y4194D01*
X8185Y4199D01*
X8210Y4213D01*
X8227Y4235D01*
X8236Y4262D01*
X8237Y4273D01*
X8237Y4474D01*
X8232Y4502D01*
X8218Y4526D01*
X8196Y4544D01*
X8169Y4553D01*
X8157Y4554D01*
G37*
G36*
G01X14152Y4749D02*
G75*
G03X14184Y4820I-64J71D01*
G74*
G01*
G75*
G03X14088Y4915I-96J0D01*
G74*
G01*
G75*
G03X14021Y4887I0J-95D01*
G74*
G01*
X13559Y4425D01*
G75*
G03X13549Y4415I62J-72D01*
G74*
G01*
X13549Y4414D01*
X13493Y4358D01*
G75*
G03X13456Y4282I58J-76D01*
G74*
G01*
G75*
G03X13551Y4187I95J0D01*
G74*
G01*
G75*
G03X13622Y4219I0J95D01*
G74*
G01*
X14086Y4683D01*
G75*
G03X14093Y4691I-68J66D01*
G74*
G01*
X14150Y4748D01*
X14152Y4749D01*
G37*
G36*
G01X13002Y4253D02*
X12974Y4250D01*
X12948Y4237D01*
X12939Y4229D01*
X12798Y4088D01*
X12781Y4065D01*
X12774Y4037D01*
X12774Y4031D01*
X12779Y4003D01*
X12794Y3979D01*
X12798Y3975D01*
X12909Y3863D01*
X12933Y3847D01*
X12960Y3839D01*
X12988Y3842D01*
X13014Y3855D01*
X13022Y3863D01*
X13165Y4005D01*
X13181Y4028D01*
X13188Y4055D01*
X13188Y4061D01*
X13183Y4089D01*
X13168Y4113D01*
X13164Y4118D01*
X13052Y4229D01*
X13029Y4246D01*
X13002Y4253D01*
G37*
G36*
G01X8848Y3904D02*
X8689Y3904D01*
X8661Y3899D01*
X8636Y3884D01*
X8619Y3862D01*
X8610Y3835D01*
X8609Y3824D01*
X8609Y3623D01*
X8614Y3595D01*
X8628Y3571D01*
X8650Y3553D01*
X8677Y3544D01*
X8848Y3544D01*
X8875Y3549D01*
X8900Y3563D01*
X8917Y3585D01*
X8926Y3612D01*
X8927Y3623D01*
X8927Y3824D01*
X8922Y3852D01*
X8908Y3876D01*
X8886Y3894D01*
X8859Y3903D01*
X8848Y3904D01*
G37*
G36*
G01X8157Y3904D02*
X7998Y3904D01*
X7971Y3899D01*
X7946Y3884D01*
X7929Y3862D01*
X7920Y3835D01*
X7919Y3824D01*
X7919Y3623D01*
X7924Y3595D01*
X7938Y3571D01*
X7960Y3553D01*
X7987Y3544D01*
X8157Y3544D01*
X8185Y3549D01*
X8210Y3563D01*
X8227Y3585D01*
X8236Y3612D01*
X8237Y3623D01*
X8237Y3824D01*
X8232Y3852D01*
X8218Y3876D01*
X8196Y3894D01*
X8169Y3903D01*
X8157Y3904D01*
G37*
G36*
G01X14439Y4471D02*
G75*
G03X14466Y4537I-68J66D01*
G74*
G01*
G75*
G03X14371Y4632I-95J0D01*
G74*
G01*
G75*
G03X14304Y4604I0J-95D01*
G74*
G01*
X13844Y4144D01*
G75*
G03X13830Y4130I60J-74D01*
G74*
G01*
X13830Y4129D01*
X13777Y4076D01*
G75*
G03X13738Y3999I57J-77D01*
G74*
G01*
G75*
G03X13834Y3904I96J0D01*
G74*
G01*
G75*
G03X13900Y3932I0J95D01*
G74*
G01*
X13901Y3932D01*
X14367Y4399D01*
G75*
G03X14375Y4407I-67J67D01*
G74*
G01*
X14439Y4471D01*
G37*
G36*
G01X21084Y7721D02*
G75*
G03X21113Y7790I-66J69D01*
G74*
G01*
G75*
G03X21018Y7885I-95J0D01*
G74*
G01*
G75*
G03X20951Y7857I0J-95D01*
G74*
G01*
X20886Y7792D01*
G75*
G03X20880Y7786I61J-73D01*
G74*
G01*
X20419Y7325D01*
G75*
G03X20385Y7252I61J-73D01*
G74*
G01*
G75*
G03X20480Y7157I95J0D01*
G74*
G01*
G75*
G03X20555Y7193I0J95D01*
G74*
G01*
X20616Y7254D01*
X20618Y7255D01*
G75*
G03X20626Y7264I-67J68D01*
G74*
G01*
X21012Y7650D01*
X21014Y7651D01*
G75*
G03X21022Y7660I-67J68D01*
G74*
G01*
X21082Y7720D01*
X21084Y7721D01*
G37*
G36*
G01X20550Y6582D02*
G75*
G03X20480Y6612I-70J-65D01*
G74*
G01*
G75*
G03X20385Y6517I0J-95D01*
G74*
G01*
G75*
G03X20412Y6451I95J0D01*
G74*
G01*
X20945Y5918D01*
G75*
G03X21018Y5884I73J61D01*
G74*
G01*
G75*
G03X21113Y5979I0J95D01*
G74*
G01*
G75*
G03X21077Y6054I-95J0D01*
G74*
G01*
X21017Y6114D01*
X21017Y6115D01*
G75*
G03X21006Y6125I-70J-65D01*
G74*
G01*
X20621Y6510D01*
X20621Y6511D01*
G75*
G03X20610Y6521I-70J-65D01*
G74*
G01*
X20550Y6581D01*
X20550Y6582D01*
G37*
G36*
G01X20265Y6301D02*
G75*
G03X20198Y6329I-67J-67D01*
G74*
G01*
G75*
G03X20103Y6234I0J-95D01*
G74*
G01*
G75*
G03X20133Y6164I95J0D01*
G74*
G01*
X20135Y6163D01*
X20193Y6105D01*
G75*
G03X20200Y6097I75J58D01*
G74*
G01*
X20593Y5704D01*
G75*
G03X20600Y5697I71J63D01*
G74*
G01*
X20602Y5696D01*
X20659Y5639D01*
G75*
G03X20735Y5601I76J58D01*
G74*
G01*
G75*
G03X20830Y5697I0J96D01*
G74*
G01*
G75*
G03X20797Y5769I-95J0D01*
G74*
G01*
X20796Y5770D01*
X20498Y6067D01*
X20498Y6068D01*
X20265Y6301D01*
G37*
G36*
G01X19982Y6018D02*
G75*
G03X19915Y6046I-67J-67D01*
G74*
G01*
G75*
G03X19820Y5951I0J-95D01*
G74*
G01*
G75*
G03X19848Y5884I95J0D01*
G74*
G01*
X20378Y5354D01*
G75*
G03X20452Y5318I74J60D01*
G74*
G01*
G75*
G03X20547Y5414I0J96D01*
G74*
G01*
G75*
G03X20513Y5487I-95J0D01*
G74*
G01*
X20052Y5948D01*
G75*
G03X20046Y5954I-67J-67D01*
G74*
G01*
X19982Y6018D01*
G37*
G36*
G01X19702Y5733D02*
G75*
G03X19632Y5764I-70J-65D01*
G74*
G01*
G75*
G03X19536Y5668I0J-96D01*
G74*
G01*
G75*
G03X19564Y5602I96J0D01*
G74*
G01*
X19798Y5368D01*
X19800Y5367D01*
X20095Y5071D01*
X20096Y5070D01*
G75*
G03X20169Y5036I73J61D01*
G74*
G01*
G75*
G03X20265Y5131I0J95D01*
G74*
G01*
G75*
G03X20228Y5206I-96J0D01*
G74*
G01*
X20168Y5266D01*
X20168Y5267D01*
G75*
G03X20164Y5271I-69J-65D01*
G74*
G01*
X19770Y5665D01*
G75*
G03X19762Y5672I-67J-67D01*
G74*
G01*
X19702Y5732D01*
X19702Y5733D01*
G37*
G36*
G01X19416Y5453D02*
G75*
G03X19349Y5481I-67J-67D01*
G74*
G01*
G75*
G03X19254Y5386I0J-95D01*
G74*
G01*
G75*
G03X19285Y5315I95J0D01*
G74*
G01*
X19287Y5314D01*
X19344Y5257D01*
G75*
G03X19356Y5244I76J58D01*
G74*
G01*
X19358Y5243D01*
X19740Y4861D01*
G75*
G03X19752Y4848I76J58D01*
G74*
G01*
X19754Y4847D01*
X19811Y4790D01*
G75*
G03X19887Y4753I76J58D01*
G74*
G01*
G75*
G03X19982Y4848I0J95D01*
G74*
G01*
G75*
G03X19949Y4920I-95J0D01*
G74*
G01*
X19487Y5382D01*
G75*
G03X19483Y5386I-67J-67D01*
G74*
G01*
X19416Y5453D01*
G37*
G36*
G01X19133Y5170D02*
G75*
G03X19066Y5198I-67J-67D01*
G74*
G01*
G75*
G03X18971Y5103I0J-95D01*
G74*
G01*
G75*
G03X18998Y5037I95J0D01*
G74*
G01*
X19529Y4506D01*
G75*
G03X19604Y4470I75J59D01*
G74*
G01*
G75*
G03X19699Y4565I0J95D01*
G74*
G01*
G75*
G03X19665Y4638I-95J0D01*
G74*
G01*
X19133Y5170D01*
G37*
G36*
G01X18852Y4886D02*
G75*
G03X18783Y4915I-69J-66D01*
G74*
G01*
G75*
G03X18688Y4820I0J-95D01*
G74*
G01*
G75*
G03X18715Y4754I95J0D01*
G74*
G01*
X18780Y4689D01*
G75*
G03X18787Y4682I74J60D01*
G74*
G01*
X19247Y4222D01*
G75*
G03X19321Y4187I74J60D01*
G74*
G01*
G75*
G03X19416Y4282I0J95D01*
G74*
G01*
G75*
G03X19380Y4357I-95J0D01*
G74*
G01*
X19319Y4418D01*
X19319Y4419D01*
G75*
G03X19310Y4427I-69J-66D01*
G74*
G01*
X18922Y4815D01*
X18922Y4816D01*
G75*
G03X18913Y4824I-68J-67D01*
G74*
G01*
X18852Y4885D01*
X18852Y4886D01*
G37*
G36*
G01X18572Y4600D02*
G75*
G03X18500Y4632I-72J-63D01*
G74*
G01*
G75*
G03X18405Y4537I0J-95D01*
G74*
G01*
G75*
G03X18433Y4470I95J0D01*
G74*
G01*
X18966Y3937D01*
G75*
G03X19038Y3904I72J62D01*
G74*
G01*
G75*
G03X19133Y3999I0J95D01*
G74*
G01*
G75*
G03X19096Y4075I-95J0D01*
G74*
G01*
X19039Y4132D01*
X19039Y4133D01*
G75*
G03X19025Y4146I-72J-63D01*
G74*
G01*
X18643Y4528D01*
X18643Y4529D01*
G75*
G03X18629Y4542I-72J-63D01*
G74*
G01*
X18572Y4599D01*
X18572Y4600D01*
G37*
G36*
G01X18285Y4321D02*
G75*
G03X18218Y4349I-67J-67D01*
G74*
G01*
G75*
G03X18123Y4254I0J-95D01*
G74*
G01*
G75*
G03X18151Y4186I95J0D01*
G74*
G01*
X18153Y4185D01*
X18213Y4125D01*
G75*
G03X18221Y4116I75J58D01*
G74*
G01*
X18616Y3721D01*
G75*
G03X18618Y3719I68J66D01*
G74*
G01*
X18620Y3718D01*
X18680Y3658D01*
G75*
G03X18755Y3621I75J59D01*
G74*
G01*
G75*
G03X18851Y3717I0J96D01*
G74*
G01*
G75*
G03X18816Y3790I-96J0D01*
G74*
G01*
X18815Y3791D01*
X18518Y4087D01*
X18518Y4088D01*
X18285Y4321D01*
G37*
G36*
G01X14722Y4188D02*
G75*
G03X14749Y4254I-68J66D01*
G74*
G01*
G75*
G03X14654Y4349I-95J0D01*
G74*
G01*
G75*
G03X14585Y4320I0J-95D01*
G74*
G01*
X14585Y4319D01*
X14524Y4258D01*
G75*
G03X14514Y4249I59J-75D01*
G74*
G01*
X14514Y4248D01*
X14051Y3786D01*
X14050Y3785D01*
G75*
G03X14021Y3717I66J-68D01*
G74*
G01*
G75*
G03X14116Y3621I95J0D01*
G74*
G01*
G75*
G03X14193Y3660I0J96D01*
G74*
G01*
X14247Y3714D01*
X14249Y3715D01*
G75*
G03X14260Y3726I-62J72D01*
G74*
G01*
X14722Y4188D01*
G37*
G36*
G01X18002Y4038D02*
G75*
G03X17935Y4066I-67J-67D01*
G74*
G01*
G75*
G03X17840Y3971I0J-95D01*
G74*
G01*
G75*
G03X17868Y3904I95J0D01*
G74*
G01*
X18399Y3373D01*
G75*
G03X18472Y3339I73J61D01*
G74*
G01*
G75*
G03X18568Y3434I0J95D01*
G74*
G01*
G75*
G03X18532Y3508I-96J0D01*
G74*
G01*
X18002Y4038D01*
G37*
G36*
G01X15005Y3905D02*
G75*
G03X15032Y3971I-68J66D01*
G74*
G01*
G75*
G03X14937Y4066I-95J0D01*
G74*
G01*
G75*
G03X14865Y4034I0J-95D01*
G74*
G01*
X14865Y4033D01*
X14808Y3976D01*
G75*
G03X14799Y3968I58J-75D01*
G74*
G01*
X14337Y3506D01*
G75*
G03X14304Y3434I62J-72D01*
G74*
G01*
G75*
G03X14399Y3338I95J0D01*
G74*
G01*
G75*
G03X14475Y3376I0J96D01*
G74*
G01*
X14531Y3432D01*
X14533Y3433D01*
G75*
G03X14541Y3441I-63J71D01*
G74*
G01*
X15005Y3905D01*
G37*
G36*
G01X17719Y3756D02*
G75*
G03X17652Y3784I-67J-67D01*
G74*
G01*
G75*
G03X17557Y3689I0J-95D01*
G74*
G01*
G75*
G03X17589Y3617I95J0D01*
G74*
G01*
X17591Y3616D01*
X17647Y3560D01*
G75*
G03X17660Y3546I76J58D01*
G74*
G01*
X17662Y3545D01*
X18116Y3090D01*
X18117Y3089D01*
G75*
G03X18189Y3056I72J62D01*
G74*
G01*
G75*
G03X18285Y3151I0J95D01*
G74*
G01*
G75*
G03X18248Y3226I-96J0D01*
G74*
G01*
X18190Y3284D01*
X18190Y3285D01*
G75*
G03X18182Y3293I-71J-63D01*
G74*
G01*
X17719Y3756D01*
G37*
G36*
G01X15287Y3622D02*
G75*
G03X15314Y3689I-67J67D01*
G74*
G01*
G75*
G03X15220Y3783I-94J0D01*
G74*
G01*
G75*
G03X15153Y3756I0J-94D01*
G74*
G01*
X15088Y3691D01*
G75*
G03X15082Y3685I61J-73D01*
G74*
G01*
X14621Y3224D01*
G75*
G03X14587Y3151I61J-73D01*
G74*
G01*
G75*
G03X14682Y3056I95J0D01*
G74*
G01*
G75*
G03X14757Y3092I0J95D01*
G74*
G01*
X15216Y3551D01*
G75*
G03X15224Y3559I-67J67D01*
G74*
G01*
X15287Y3622D01*
G37*
G36*
G01X8848Y3254D02*
X8689Y3254D01*
X8661Y3249D01*
X8636Y3234D01*
X8619Y3212D01*
X8610Y3185D01*
X8609Y3174D01*
X8609Y2973D01*
X8614Y2945D01*
X8628Y2921D01*
X8650Y2903D01*
X8677Y2894D01*
X8848Y2894D01*
X8875Y2899D01*
X8900Y2913D01*
X8917Y2935D01*
X8926Y2962D01*
X8927Y2973D01*
X8927Y3174D01*
X8922Y3202D01*
X8908Y3226D01*
X8886Y3244D01*
X8859Y3253D01*
X8848Y3254D01*
G37*
G36*
G01X8157Y3254D02*
X7998Y3254D01*
X7971Y3249D01*
X7946Y3234D01*
X7929Y3212D01*
X7920Y3185D01*
X7919Y3174D01*
X7919Y2973D01*
X7924Y2945D01*
X7938Y2921D01*
X7960Y2903D01*
X7987Y2894D01*
X8157Y2894D01*
X8185Y2899D01*
X8210Y2913D01*
X8227Y2935D01*
X8236Y2962D01*
X8237Y2973D01*
X8237Y3174D01*
X8232Y3202D01*
X8218Y3226D01*
X8196Y3244D01*
X8169Y3253D01*
X8157Y3254D01*
G37*
G36*
G01X17436Y3473D02*
G75*
G03X17369Y3501I-67J-67D01*
G74*
G01*
G75*
G03X17274Y3406I0J-95D01*
G74*
G01*
G75*
G03X17304Y3336I95J0D01*
G74*
G01*
X17306Y3335D01*
X17365Y3276D01*
G75*
G03X17374Y3266I75J59D01*
G74*
G01*
X17376Y3265D01*
X17761Y2880D01*
G75*
G03X17771Y2869I75J59D01*
G74*
G01*
X17773Y2868D01*
X17831Y2810D01*
G75*
G03X17907Y2773I76J58D01*
G74*
G01*
G75*
G03X18002Y2868I0J95D01*
G74*
G01*
G75*
G03X17968Y2941I-95J0D01*
G74*
G01*
X17507Y3402D01*
G75*
G03X17501Y3408I-67J-67D01*
G74*
G01*
X17436Y3473D01*
G37*
G36*
G01X15564Y3333D02*
G75*
G03X15598Y3406I-62J73D01*
G74*
G01*
G75*
G03X15502Y3501I-96J0D01*
G74*
G01*
G75*
G03X15435Y3473I0J-95D01*
G74*
G01*
X15202Y3240D01*
X15202Y3239D01*
X14976Y3013D01*
G75*
G03X14967Y3005I60J-74D01*
G74*
G01*
X14967Y3004D01*
X14906Y2943D01*
G75*
G03X14870Y2868I59J-75D01*
G74*
G01*
G75*
G03X14965Y2773I95J0D01*
G74*
G01*
G75*
G03X15038Y2807I0J95D01*
G74*
G01*
X15500Y3269D01*
G75*
G03X15509Y3279I-68J66D01*
G74*
G01*
X15562Y3332D01*
X15564Y3333D01*
G37*
G36*
G01X17153Y3190D02*
G75*
G03X17086Y3218I-67J-67D01*
G74*
G01*
G75*
G03X16992Y3123I0J-95D01*
G74*
G01*
G75*
G03X17018Y3057I94J0D01*
G74*
G01*
X17083Y2992D01*
G75*
G03X17090Y2985I74J60D01*
G74*
G01*
X17550Y2525D01*
G75*
G03X17624Y2490I74J60D01*
G74*
G01*
G75*
G03X17719Y2585I0J95D01*
G74*
G01*
G75*
G03X17684Y2659I-95J0D01*
G74*
G01*
X17224Y3119D01*
G75*
G03X17217Y3126I-67J-67D01*
G74*
G01*
X17153Y3190D01*
G37*
G36*
G01X15848Y3051D02*
G75*
G03X15881Y3123I-63J72D01*
G74*
G01*
G75*
G03X15785Y3218I-96J0D01*
G74*
G01*
G75*
G03X15718Y3190I0J-95D01*
G74*
G01*
X15255Y2727D01*
G75*
G03X15247Y2719I63J-71D01*
G74*
G01*
X15247Y2718D01*
X15190Y2661D01*
G75*
G03X15153Y2585I58J-76D01*
G74*
G01*
G75*
G03X15248Y2490I95J0D01*
G74*
G01*
G75*
G03X15320Y2523I0J95D01*
G74*
G01*
X15782Y2985D01*
G75*
G03X15791Y2995I-67J67D01*
G74*
G01*
X15846Y3050D01*
X15848Y3051D01*
G37*
G36*
G01X16874Y2904D02*
G75*
G03X16803Y2935I-71J-64D01*
G74*
G01*
G75*
G03X16708Y2840I0J-95D01*
G74*
G01*
G75*
G03X16735Y2774I95J0D01*
G74*
G01*
X16802Y2707D01*
G75*
G03X16807Y2702I72J62D01*
G74*
G01*
X17268Y2241D01*
G75*
G03X17341Y2207I73J61D01*
G74*
G01*
G75*
G03X17436Y2302I0J95D01*
G74*
G01*
G75*
G03X17400Y2377I-95J0D01*
G74*
G01*
X17341Y2436D01*
X17341Y2437D01*
G75*
G03X17329Y2448I-71J-64D01*
G74*
G01*
X16945Y2832D01*
X16945Y2833D01*
G75*
G03X16933Y2844I-71J-64D01*
G74*
G01*
X16874Y2903D01*
X16874Y2904D01*
G37*
G36*
G01X16135Y2772D02*
G75*
G03X16163Y2840I-67J68D01*
G74*
G01*
G75*
G03X16068Y2935I-95J0D01*
G74*
G01*
G75*
G03X16001Y2907I0J-95D01*
G74*
G01*
X15540Y2446D01*
G75*
G03X15528Y2434I61J-73D01*
G74*
G01*
X15528Y2433D01*
X15474Y2379D01*
G75*
G03X15435Y2302I57J-77D01*
G74*
G01*
G75*
G03X15531Y2207I96J0D01*
G74*
G01*
G75*
G03X15599Y2236I0J95D01*
G74*
G01*
X15600Y2237D01*
X16062Y2700D01*
X16064Y2701D01*
G75*
G03X16072Y2710I-67J68D01*
G74*
G01*
X16133Y2771D01*
X16135Y2772D01*
G37*
G36*
G01X17929Y2370D02*
X17892Y2365D01*
X17858Y2349D01*
X17833Y2329D01*
X17635Y2132D01*
X17612Y2102D01*
X17598Y2067D01*
X17594Y2032D01*
X17599Y1995D01*
X17614Y1960D01*
X17635Y1933D01*
X17875Y1693D01*
X17905Y1670D01*
X17940Y1656D01*
X17977Y1652D01*
X18014Y1657D01*
X18049Y1673D01*
X18074Y1693D01*
X18271Y1890D01*
X18294Y1920D01*
X18308Y1955D01*
X18313Y1990D01*
X18308Y2027D01*
X18293Y2062D01*
X18271Y2089D01*
X18032Y2329D01*
X18002Y2352D01*
X17967Y2366D01*
X17929Y2370D01*
G37*
G36*
G01X15130Y2124D02*
X15102Y2121D01*
X15077Y2109D01*
X15068Y2101D01*
X14926Y1960D01*
X14910Y1936D01*
X14903Y1909D01*
X14902Y1903D01*
X14908Y1875D01*
X14922Y1851D01*
X14926Y1846D01*
X15038Y1734D01*
X15061Y1718D01*
X15088Y1711D01*
X15117Y1714D01*
X15142Y1727D01*
X15151Y1734D01*
X15293Y1876D01*
X15309Y1900D01*
X15316Y1927D01*
X15316Y1933D01*
X15311Y1960D01*
X15297Y1985D01*
X15181Y2101D01*
X15158Y2117D01*
X15130Y2124D01*
G37*
G36*
G01X17251Y1691D02*
X17213Y1686D01*
X17179Y1670D01*
X17154Y1650D01*
X16957Y1453D01*
X16934Y1423D01*
X16919Y1388D01*
X16915Y1353D01*
X16920Y1316D01*
X16935Y1281D01*
X16957Y1254D01*
X17196Y1014D01*
X17226Y991D01*
X17261Y977D01*
X17298Y973D01*
X17335Y979D01*
X17370Y994D01*
X17395Y1014D01*
X17592Y1211D01*
X17615Y1241D01*
X17629Y1276D01*
X17634Y1311D01*
X17629Y1348D01*
X17614Y1383D01*
X17592Y1410D01*
X17353Y1650D01*
X17323Y1673D01*
X17288Y1687D01*
X17251Y1691D01*
G37*
G36*
G01X15618Y1636D02*
X15590Y1634D01*
X15565Y1621D01*
X15555Y1613D01*
X15414Y1472D01*
X15398Y1448D01*
X15391Y1421D01*
X15390Y1415D01*
X15395Y1387D01*
X15410Y1363D01*
X15414Y1358D01*
X15526Y1247D01*
X15549Y1230D01*
X15576Y1223D01*
X15605Y1226D01*
X15630Y1239D01*
X15639Y1246D01*
X15781Y1388D01*
X15797Y1412D01*
X15804Y1439D01*
X15804Y1445D01*
X15799Y1473D01*
X15785Y1497D01*
X15669Y1613D01*
X15646Y1629D01*
X15618Y1636D01*
G37*
G36*
G01X18556Y1698D02*
X18527Y1695D01*
X18502Y1682D01*
X18493Y1674D01*
X18382Y1563D01*
X18365Y1540D01*
X18358Y1512D01*
X18358Y1506D01*
X18363Y1478D01*
X18378Y1454D01*
X18381Y1450D01*
X18523Y1308D01*
X18547Y1291D01*
X18574Y1285D01*
X18602Y1288D01*
X18628Y1300D01*
X18748Y1420D01*
X18765Y1443D01*
X18772Y1471D01*
X18772Y1476D01*
X18767Y1504D01*
X18752Y1529D01*
X18606Y1675D01*
X18583Y1691D01*
X18556Y1698D01*
G37*
G36*
G01X18068Y1210D02*
X18040Y1207D01*
X18014Y1194D01*
X18006Y1187D01*
X17894Y1075D01*
X17877Y1052D01*
X17870Y1024D01*
X17870Y1018D01*
X17875Y990D01*
X17890Y966D01*
X17893Y962D01*
X18036Y820D01*
X18059Y804D01*
X18086Y797D01*
X18114Y800D01*
X18140Y812D01*
X18148Y820D01*
X18261Y932D01*
X18277Y955D01*
X18284Y983D01*
X18284Y988D01*
X18279Y1016D01*
X18264Y1041D01*
X18261Y1045D01*
X18118Y1187D01*
X18095Y1203D01*
X18068Y1210D01*
G37*
G36*
G01X-4627Y374D02*
X-6327Y374D01*
X-6327Y-426D01*
X-4627Y-426D01*
X-4627Y374D01*
G37*
G36*
G01X-7452Y374D02*
X-9152Y374D01*
X-9152Y-426D01*
X-7452Y-426D01*
X-7452Y374D01*
G37*
G36*
G01X20918Y-236D02*
G75*
G03X20823Y-141I-95J0D01*
G74*
G01*
G75*
G03X20728Y-236I0J-95D01*
G74*
G01*
X20728Y-806D01*
G75*
G03X20823Y-901I95J0D01*
G74*
G01*
G75*
G03X20918Y-806I0J95D01*
G74*
G01*
X20918Y-236D01*
G37*
G36*
G01X20518Y-236D02*
G75*
G03X20423Y-141I-95J0D01*
G74*
G01*
G75*
G03X20328Y-236I0J-95D01*
G74*
G01*
X20328Y-806D01*
G75*
G03X20423Y-901I95J0D01*
G74*
G01*
G75*
G03X20518Y-806I0J95D01*
G74*
G01*
X20518Y-336D01*
G75*
G03X20518Y-327I-95J0D01*
G74*
G01*
X20518Y-236D01*
G37*
G36*
G01X20118Y-236D02*
G75*
G03X20023Y-141I-95J0D01*
G74*
G01*
G75*
G03X19928Y-236I0J-95D01*
G74*
G01*
X19928Y-327D01*
G75*
G03X19928Y-336I95J-9D01*
G74*
G01*
X19928Y-806D01*
G75*
G03X20023Y-901I95J0D01*
G74*
G01*
G75*
G03X20118Y-806I0J95D01*
G74*
G01*
X20118Y-336D01*
G75*
G03X20118Y-327I-95J0D01*
G74*
G01*
X20118Y-236D01*
G37*
G36*
G01X19718Y-236D02*
G75*
G03X19623Y-141I-95J0D01*
G74*
G01*
G75*
G03X19528Y-236I0J-95D01*
G74*
G01*
X19528Y-806D01*
G75*
G03X19623Y-901I95J0D01*
G74*
G01*
G75*
G03X19718Y-806I0J95D01*
G74*
G01*
X19718Y-336D01*
G75*
G03X19718Y-327I-95J0D01*
G74*
G01*
X19718Y-236D01*
G37*
G36*
G01X19318Y-236D02*
G75*
G03X19223Y-141I-95J0D01*
G74*
G01*
G75*
G03X19128Y-236I0J-95D01*
G74*
G01*
X19128Y-327D01*
G75*
G03X19128Y-336I95J-9D01*
G74*
G01*
X19128Y-806D01*
G75*
G03X19223Y-901I95J0D01*
G74*
G01*
G75*
G03X19318Y-806I0J95D01*
G74*
G01*
X19318Y-336D01*
G75*
G03X19318Y-327I-95J0D01*
G74*
G01*
X19318Y-236D01*
G37*
G36*
G01X18918Y-236D02*
G75*
G03X18823Y-141I-95J0D01*
G74*
G01*
G75*
G03X18728Y-236I0J-95D01*
G74*
G01*
X18728Y-327D01*
G75*
G03X18728Y-336I95J-9D01*
G74*
G01*
X18728Y-806D01*
G75*
G03X18823Y-901I95J0D01*
G74*
G01*
G75*
G03X18918Y-806I0J95D01*
G74*
G01*
X18918Y-236D01*
G37*
G36*
G01X18518Y-236D02*
G75*
G03X18423Y-141I-95J0D01*
G74*
G01*
G75*
G03X18328Y-236I0J-95D01*
G74*
G01*
X18328Y-327D01*
G75*
G03X18328Y-336I95J-9D01*
G74*
G01*
X18328Y-806D01*
G75*
G03X18423Y-901I95J0D01*
G74*
G01*
G75*
G03X18518Y-806I0J95D01*
G74*
G01*
X18518Y-336D01*
G75*
G03X18518Y-327I-95J0D01*
G74*
G01*
X18518Y-236D01*
G37*
G36*
G01X18118Y-236D02*
G75*
G03X18023Y-141I-95J0D01*
G74*
G01*
G75*
G03X17928Y-236I0J-95D01*
G74*
G01*
X17928Y-806D01*
G75*
G03X18023Y-901I95J0D01*
G74*
G01*
G75*
G03X18118Y-806I0J95D01*
G74*
G01*
X18118Y-236D01*
G37*
G36*
G01X17718Y-236D02*
G75*
G03X17623Y-141I-95J0D01*
G74*
G01*
G75*
G03X17528Y-236I0J-95D01*
G74*
G01*
X17528Y-327D01*
G75*
G03X17528Y-336I95J-9D01*
G74*
G01*
X17528Y-806D01*
G75*
G03X17623Y-901I95J0D01*
G74*
G01*
G75*
G03X17718Y-806I0J95D01*
G74*
G01*
X17718Y-236D01*
G37*
G36*
G01X17318Y-236D02*
G75*
G03X17223Y-141I-95J0D01*
G74*
G01*
G75*
G03X17128Y-236I0J-95D01*
G74*
G01*
X17128Y-327D01*
G75*
G03X17128Y-336I95J-9D01*
G74*
G01*
X17128Y-806D01*
G75*
G03X17223Y-901I95J0D01*
G74*
G01*
G75*
G03X17318Y-806I0J95D01*
G74*
G01*
X17318Y-236D01*
G37*
G36*
G01X16918Y-236D02*
G75*
G03X16823Y-141I-95J0D01*
G74*
G01*
G75*
G03X16728Y-236I0J-95D01*
G74*
G01*
X16728Y-806D01*
G75*
G03X16823Y-901I95J0D01*
G74*
G01*
G75*
G03X16918Y-806I0J95D01*
G74*
G01*
X16918Y-236D01*
G37*
G36*
G01X16518Y-236D02*
G75*
G03X16423Y-141I-95J0D01*
G74*
G01*
G75*
G03X16328Y-236I0J-95D01*
G74*
G01*
X16328Y-806D01*
G75*
G03X16423Y-901I95J0D01*
G74*
G01*
G75*
G03X16518Y-806I0J95D01*
G74*
G01*
X16518Y-236D01*
G37*
G36*
G01X16118Y-236D02*
G75*
G03X16023Y-141I-95J0D01*
G74*
G01*
G75*
G03X15928Y-236I0J-95D01*
G74*
G01*
X15928Y-806D01*
G75*
G03X16023Y-901I95J0D01*
G74*
G01*
G75*
G03X16118Y-806I0J95D01*
G74*
G01*
X16118Y-236D01*
G37*
G36*
G01X15718Y-236D02*
G75*
G03X15623Y-141I-95J0D01*
G74*
G01*
G75*
G03X15528Y-236I0J-95D01*
G74*
G01*
X15528Y-327D01*
G75*
G03X15528Y-336I95J-9D01*
G74*
G01*
X15528Y-806D01*
G75*
G03X15623Y-901I95J0D01*
G74*
G01*
G75*
G03X15718Y-806I0J95D01*
G74*
G01*
X15718Y-336D01*
G75*
G03X15718Y-327I-95J0D01*
G74*
G01*
X15718Y-236D01*
G37*
G36*
G01X15318Y-236D02*
G75*
G03X15223Y-141I-95J0D01*
G74*
G01*
G75*
G03X15128Y-236I0J-95D01*
G74*
G01*
X15128Y-327D01*
G75*
G03X15128Y-336I95J-9D01*
G74*
G01*
X15128Y-806D01*
G75*
G03X15223Y-901I95J0D01*
G74*
G01*
G75*
G03X15318Y-806I0J95D01*
G74*
G01*
X15318Y-336D01*
G75*
G03X15318Y-327I-95J0D01*
G74*
G01*
X15318Y-236D01*
G37*
G36*
G01X14918Y-236D02*
G75*
G03X14823Y-141I-95J0D01*
G74*
G01*
G75*
G03X14728Y-236I0J-95D01*
G74*
G01*
X14728Y-327D01*
G75*
G03X14728Y-336I95J-9D01*
G74*
G01*
X14728Y-806D01*
G75*
G03X14823Y-901I95J0D01*
G74*
G01*
G75*
G03X14918Y-806I0J95D01*
G74*
G01*
X14918Y-236D01*
G37*
G36*
G01X14518Y-236D02*
G75*
G03X14423Y-141I-95J0D01*
G74*
G01*
G75*
G03X14328Y-236I0J-95D01*
G74*
G01*
X14328Y-327D01*
G75*
G03X14328Y-336I95J-9D01*
G74*
G01*
X14328Y-806D01*
G75*
G03X14423Y-901I95J0D01*
G74*
G01*
G75*
G03X14518Y-806I0J95D01*
G74*
G01*
X14518Y-236D01*
G37*
G36*
G01X14118Y-236D02*
G75*
G03X14023Y-141I-95J0D01*
G74*
G01*
G75*
G03X13928Y-236I0J-95D01*
G74*
G01*
X13928Y-806D01*
G75*
G03X14023Y-901I95J0D01*
G74*
G01*
G75*
G03X14118Y-806I0J95D01*
G74*
G01*
X14118Y-236D01*
G37*
G36*
G01X13718Y-236D02*
G75*
G03X13623Y-141I-95J0D01*
G74*
G01*
G75*
G03X13528Y-236I0J-95D01*
G74*
G01*
X13528Y-327D01*
G75*
G03X13528Y-336I95J-9D01*
G74*
G01*
X13528Y-806D01*
G75*
G03X13623Y-901I95J0D01*
G74*
G01*
G75*
G03X13718Y-806I0J95D01*
G74*
G01*
X13718Y-336D01*
G75*
G03X13718Y-327I-95J0D01*
G74*
G01*
X13718Y-236D01*
G37*
G36*
G01X13318Y-236D02*
G75*
G03X13223Y-141I-95J0D01*
G74*
G01*
G75*
G03X13128Y-236I0J-95D01*
G74*
G01*
X13128Y-327D01*
G75*
G03X13128Y-336I95J-9D01*
G74*
G01*
X13128Y-806D01*
G75*
G03X13223Y-901I95J0D01*
G74*
G01*
G75*
G03X13318Y-806I0J95D01*
G74*
G01*
X13318Y-336D01*
G75*
G03X13318Y-327I-95J0D01*
G74*
G01*
X13318Y-236D01*
G37*
G36*
G01X12918Y-236D02*
G75*
G03X12823Y-141I-95J0D01*
G74*
G01*
G75*
G03X12728Y-236I0J-95D01*
G74*
G01*
X12728Y-806D01*
G75*
G03X12823Y-901I95J0D01*
G74*
G01*
G75*
G03X12918Y-806I0J95D01*
G74*
G01*
X12918Y-236D01*
G37*
G36*
G01X12518Y-236D02*
G75*
G03X12423Y-141I-95J0D01*
G74*
G01*
G75*
G03X12328Y-236I0J-95D01*
G74*
G01*
X12328Y-327D01*
G75*
G03X12328Y-336I95J-9D01*
G74*
G01*
X12328Y-806D01*
G75*
G03X12423Y-901I95J0D01*
G74*
G01*
G75*
G03X12518Y-806I0J95D01*
G74*
G01*
X12518Y-236D01*
G37*
G36*
G01X12118Y-236D02*
G75*
G03X12023Y-141I-95J0D01*
G74*
G01*
G75*
G03X11928Y-236I0J-95D01*
G74*
G01*
X11928Y-327D01*
G75*
G03X11928Y-336I95J-9D01*
G74*
G01*
X11928Y-806D01*
G75*
G03X12023Y-901I95J0D01*
G74*
G01*
G75*
G03X12118Y-806I0J95D01*
G74*
G01*
X12118Y-336D01*
G75*
G03X12118Y-327I-95J0D01*
G74*
G01*
X12118Y-236D01*
G37*
G36*
G01X11718Y-236D02*
G75*
G03X11623Y-141I-95J0D01*
G74*
G01*
G75*
G03X11528Y-236I0J-95D01*
G74*
G01*
X11528Y-806D01*
G75*
G03X11623Y-901I95J0D01*
G74*
G01*
G75*
G03X11718Y-806I0J95D01*
G74*
G01*
X11718Y-336D01*
G75*
G03X11718Y-327I-95J0D01*
G74*
G01*
X11718Y-236D01*
G37*
G36*
G01X11318Y-236D02*
G75*
G03X11223Y-141I-95J0D01*
G74*
G01*
G75*
G03X11128Y-236I0J-95D01*
G74*
G01*
X11128Y-806D01*
G75*
G03X11223Y-901I95J0D01*
G74*
G01*
G75*
G03X11318Y-806I0J95D01*
G74*
G01*
X11318Y-236D01*
G37*
G36*
G01X10918Y-236D02*
G75*
G03X10823Y-141I-95J0D01*
G74*
G01*
G75*
G03X10728Y-236I0J-95D01*
G74*
G01*
X10728Y-806D01*
G75*
G03X10823Y-901I95J0D01*
G74*
G01*
G75*
G03X10918Y-806I0J95D01*
G74*
G01*
X10918Y-236D01*
G37*
G36*
G01X10518Y-236D02*
G75*
G03X10423Y-141I-95J0D01*
G74*
G01*
G75*
G03X10328Y-236I0J-95D01*
G74*
G01*
X10328Y-806D01*
G75*
G03X10423Y-901I95J0D01*
G74*
G01*
G75*
G03X10518Y-806I0J95D01*
G74*
G01*
X10518Y-236D01*
G37*
G36*
G01X10118Y-236D02*
G75*
G03X10023Y-141I-95J0D01*
G74*
G01*
G75*
G03X9928Y-236I0J-95D01*
G74*
G01*
X9928Y-327D01*
G75*
G03X9928Y-336I95J-9D01*
G74*
G01*
X9928Y-806D01*
G75*
G03X10023Y-901I95J0D01*
G74*
G01*
G75*
G03X10118Y-806I0J95D01*
G74*
G01*
X10118Y-236D01*
G37*
G36*
G01X9718Y-236D02*
G75*
G03X9623Y-141I-95J0D01*
G74*
G01*
G75*
G03X9528Y-236I0J-95D01*
G74*
G01*
X9528Y-327D01*
G75*
G03X9528Y-336I95J-9D01*
G74*
G01*
X9528Y-806D01*
G75*
G03X9623Y-901I95J0D01*
G74*
G01*
G75*
G03X9718Y-806I0J95D01*
G74*
G01*
X9718Y-336D01*
G75*
G03X9718Y-327I-95J0D01*
G74*
G01*
X9718Y-236D01*
G37*
G36*
G01X9318Y-236D02*
G75*
G03X9223Y-141I-95J0D01*
G74*
G01*
G75*
G03X9128Y-236I0J-95D01*
G74*
G01*
X9128Y-806D01*
G75*
G03X9223Y-901I95J0D01*
G74*
G01*
G75*
G03X9318Y-806I0J95D01*
G74*
G01*
X9318Y-236D01*
G37*
G36*
G01X8865Y-259D02*
G75*
G03X8748Y-142I-117J0D01*
G74*
G01*
G75*
G03X8631Y-259I0J-117D01*
G74*
G01*
X8631Y-349D01*
G75*
G03X8631Y-359I117J-10D01*
G74*
G01*
X8631Y-784D01*
G75*
G03X8748Y-901I117J0D01*
G74*
G01*
G75*
G03X8865Y-784I0J117D01*
G74*
G01*
X8865Y-259D01*
G37*
G36*
G01X1023Y-301D02*
X523Y-301D01*
X475Y-306D01*
X430Y-321D01*
X389Y-345D01*
X354Y-378D01*
X326Y-417D01*
X308Y-461D01*
X299Y-508D01*
X298Y-526D01*
X298Y-976D01*
X303Y-1024D01*
X318Y-1069D01*
X342Y-1110D01*
X374Y-1145D01*
X413Y-1173D01*
X457Y-1192D01*
X504Y-1201D01*
X1023Y-1201D01*
X1070Y-1196D01*
X1116Y-1181D01*
X1157Y-1157D01*
X1192Y-1125D01*
X1220Y-1086D01*
X1238Y-1042D01*
X1247Y-995D01*
X1248Y-976D01*
X1248Y-526D01*
X1243Y-479D01*
X1228Y-433D01*
X1204Y-392D01*
X1172Y-357D01*
X1132Y-330D01*
X1089Y-311D01*
X1042Y-302D01*
X1023Y-301D01*
G37*
G36*
G01X-2577Y-301D02*
X-3077Y-301D01*
X-3125Y-306D01*
X-3170Y-321D01*
X-3211Y-345D01*
X-3246Y-378D01*
X-3274Y-417D01*
X-3292Y-461D01*
X-3301Y-508D01*
X-3302Y-526D01*
X-3302Y-976D01*
X-3297Y-1024D01*
X-3282Y-1069D01*
X-3258Y-1110D01*
X-3226Y-1145D01*
X-3187Y-1173D01*
X-3143Y-1192D01*
X-3096Y-1201D01*
X-2577Y-1201D01*
X-2530Y-1196D01*
X-2484Y-1181D01*
X-2443Y-1157D01*
X-2408Y-1125D01*
X-2380Y-1086D01*
X-2362Y-1042D01*
X-2353Y-995D01*
X-2352Y-976D01*
X-2352Y-526D01*
X-2357Y-479D01*
X-2372Y-433D01*
X-2396Y-392D01*
X-2428Y-357D01*
X-2468Y-330D01*
X-2511Y-311D01*
X-2558Y-302D01*
X-2577Y-301D01*
G37*
G36*
G01X-72Y-1221D02*
G75*
G03X23Y-1126I0J95D01*
G74*
G01*
G75*
G03X-72Y-1031I-95J0D01*
G74*
G01*
X-582Y-1031D01*
G75*
G03X-677Y-1126I0J-95D01*
G74*
G01*
G75*
G03X-582Y-1221I95J0D01*
G74*
G01*
X-72Y-1221D01*
G37*
G36*
G01X-877Y-1031D02*
X-1177Y-1031D01*
X-1177Y-2021D01*
X-877Y-2021D01*
X-877Y-1031D01*
G37*
G36*
G01X-1472Y-1221D02*
G75*
G03X-1377Y-1126I0J95D01*
G74*
G01*
G75*
G03X-1472Y-1031I-95J0D01*
G74*
G01*
X-1982Y-1031D01*
G75*
G03X-2077Y-1126I0J-95D01*
G74*
G01*
G75*
G03X-1982Y-1221I95J0D01*
G74*
G01*
X-1472Y-1221D01*
G37*
G36*
G01X-1472Y-1621D02*
G75*
G03X-1377Y-1526I0J95D01*
G74*
G01*
G75*
G03X-1472Y-1431I-95J0D01*
G74*
G01*
X-1982Y-1431D01*
G75*
G03X-2077Y-1526I0J-95D01*
G74*
G01*
G75*
G03X-1982Y-1621I95J0D01*
G74*
G01*
X-1472Y-1621D01*
G37*
G36*
G01X-1472Y-2021D02*
G75*
G03X-1377Y-1926I0J95D01*
G74*
G01*
G75*
G03X-1472Y-1831I-95J0D01*
G74*
G01*
X-1982Y-1831D01*
G75*
G03X-2077Y-1926I0J-95D01*
G74*
G01*
G75*
G03X-1982Y-2021I95J0D01*
G74*
G01*
X-1472Y-2021D01*
G37*
G36*
G01X-2577Y-1851D02*
X-3077Y-1851D01*
X-3125Y-1856D01*
X-3170Y-1871D01*
X-3211Y-1895D01*
X-3246Y-1928D01*
X-3274Y-1967D01*
X-3292Y-2011D01*
X-3301Y-2058D01*
X-3302Y-2076D01*
X-3302Y-2526D01*
X-3297Y-2574D01*
X-3282Y-2619D01*
X-3258Y-2660D01*
X-3226Y-2695D01*
X-3187Y-2723D01*
X-3143Y-2742D01*
X-3096Y-2751D01*
X-2577Y-2751D01*
X-2530Y-2746D01*
X-2484Y-2731D01*
X-2443Y-2707D01*
X-2408Y-2675D01*
X-2380Y-2636D01*
X-2362Y-2592D01*
X-2353Y-2545D01*
X-2352Y-2526D01*
X-2352Y-2076D01*
X-2357Y-2029D01*
X-2372Y-1983D01*
X-2396Y-1942D01*
X-2428Y-1907D01*
X-2468Y-1880D01*
X-2511Y-1861D01*
X-2558Y-1852D01*
X-2577Y-1851D01*
G37*
G36*
G01X21415Y-259D02*
G75*
G03X21298Y-142I-117J0D01*
G74*
G01*
G75*
G03X21181Y-259I0J-117D01*
G74*
G01*
X21181Y-784D01*
G75*
G03X21298Y-901I117J0D01*
G74*
G01*
G75*
G03X21415Y-784I0J117D01*
G74*
G01*
X21415Y-259D01*
G37*
G36*
G01X-72Y-1621D02*
G75*
G03X23Y-1526I0J95D01*
G74*
G01*
G75*
G03X-72Y-1431I-95J0D01*
G74*
G01*
X-582Y-1431D01*
G75*
G03X-677Y-1526I0J-95D01*
G74*
G01*
G75*
G03X-582Y-1621I95J0D01*
G74*
G01*
X-72Y-1621D01*
G37*
G36*
G01X-72Y-2021D02*
G75*
G03X23Y-1926I0J95D01*
G74*
G01*
G75*
G03X-72Y-1831I-95J0D01*
G74*
G01*
X-582Y-1831D01*
G75*
G03X-677Y-1926I0J-95D01*
G74*
G01*
G75*
G03X-582Y-2021I95J0D01*
G74*
G01*
X-72Y-2021D01*
G37*
G36*
G01X1023Y-1851D02*
X523Y-1851D01*
X475Y-1856D01*
X430Y-1871D01*
X389Y-1895D01*
X354Y-1928D01*
X326Y-1967D01*
X308Y-2011D01*
X299Y-2058D01*
X298Y-2076D01*
X298Y-2526D01*
X303Y-2574D01*
X318Y-2619D01*
X342Y-2660D01*
X374Y-2695D01*
X413Y-2723D01*
X457Y-2742D01*
X504Y-2751D01*
X1023Y-2751D01*
X1070Y-2746D01*
X1116Y-2731D01*
X1157Y-2707D01*
X1192Y-2675D01*
X1220Y-2636D01*
X1238Y-2592D01*
X1247Y-2545D01*
X1248Y-2526D01*
X1248Y-2076D01*
X1243Y-2029D01*
X1228Y-1983D01*
X1204Y-1942D01*
X1172Y-1907D01*
X1132Y-1880D01*
X1089Y-1861D01*
X1042Y-1852D01*
X1023Y-1851D01*
G37*
G36*
G01X-75Y-2477D02*
X-234Y-2477D01*
X-262Y-2483D01*
X-287Y-2497D01*
X-304Y-2519D01*
X-313Y-2546D01*
X-314Y-2557D01*
X-314Y-2758D01*
X-309Y-2786D01*
X-294Y-2810D01*
X-272Y-2828D01*
X-245Y-2837D01*
X-234Y-2838D01*
X-75Y-2838D01*
X-47Y-2833D01*
X-23Y-2818D01*
X-5Y-2796D01*
X4Y-2769D01*
X4Y-2557D01*
X-1Y-2529D01*
X-15Y-2505D01*
X-37Y-2487D01*
X-64Y-2478D01*
X-75Y-2477D01*
G37*
G36*
G01X-765Y-2477D02*
X-924Y-2477D01*
X-952Y-2483D01*
X-977Y-2497D01*
X-994Y-2519D01*
X-1003Y-2546D01*
X-1004Y-2557D01*
X-1004Y-2758D01*
X-999Y-2786D01*
X-984Y-2810D01*
X-962Y-2828D01*
X-935Y-2837D01*
X-924Y-2838D01*
X-765Y-2838D01*
X-737Y-2833D01*
X-713Y-2818D01*
X-695Y-2796D01*
X-686Y-2769D01*
X-686Y-2557D01*
X-691Y-2529D01*
X-705Y-2505D01*
X-727Y-2487D01*
X-754Y-2478D01*
X-765Y-2477D01*
G37*
G36*
G01X20918Y-3046D02*
G75*
G03X20823Y-2951I-95J0D01*
G74*
G01*
G75*
G03X20728Y-3046I0J-95D01*
G74*
G01*
X20728Y-3616D01*
G75*
G03X20823Y-3711I95J0D01*
G74*
G01*
G75*
G03X20918Y-3616I0J95D01*
G74*
G01*
X20918Y-3146D01*
G75*
G03X20918Y-3137I-95J0D01*
G74*
G01*
X20918Y-3046D01*
G37*
G36*
G01X20518Y-3046D02*
G75*
G03X20423Y-2951I-95J0D01*
G74*
G01*
G75*
G03X20328Y-3046I0J-95D01*
G74*
G01*
X20328Y-3616D01*
G75*
G03X20423Y-3711I95J0D01*
G74*
G01*
G75*
G03X20518Y-3616I0J95D01*
G74*
G01*
X20518Y-3046D01*
G37*
G36*
G01X20118Y-3046D02*
G75*
G03X20023Y-2951I-95J0D01*
G74*
G01*
G75*
G03X19928Y-3046I0J-95D01*
G74*
G01*
X19928Y-3616D01*
G75*
G03X20023Y-3711I95J0D01*
G74*
G01*
G75*
G03X20118Y-3616I0J95D01*
G74*
G01*
X20118Y-3146D01*
G75*
G03X20118Y-3137I-95J0D01*
G74*
G01*
X20118Y-3046D01*
G37*
G36*
G01X19718Y-3046D02*
G75*
G03X19623Y-2951I-95J0D01*
G74*
G01*
G75*
G03X19528Y-3046I0J-95D01*
G74*
G01*
X19528Y-3137D01*
G75*
G03X19528Y-3146I95J-9D01*
G74*
G01*
X19528Y-3616D01*
G75*
G03X19623Y-3711I95J0D01*
G74*
G01*
G75*
G03X19718Y-3616I0J95D01*
G74*
G01*
X19718Y-3146D01*
G75*
G03X19718Y-3137I-95J0D01*
G74*
G01*
X19718Y-3046D01*
G37*
G36*
G01X19318Y-3046D02*
G75*
G03X19223Y-2951I-95J0D01*
G74*
G01*
G75*
G03X19128Y-3046I0J-95D01*
G74*
G01*
X19128Y-3137D01*
G75*
G03X19128Y-3146I95J-9D01*
G74*
G01*
X19128Y-3616D01*
G75*
G03X19223Y-3711I95J0D01*
G74*
G01*
G75*
G03X19318Y-3616I0J95D01*
G74*
G01*
X19318Y-3146D01*
G75*
G03X19318Y-3137I-95J0D01*
G74*
G01*
X19318Y-3046D01*
G37*
G36*
G01X18918Y-3046D02*
G75*
G03X18823Y-2951I-95J0D01*
G74*
G01*
G75*
G03X18728Y-3046I0J-95D01*
G74*
G01*
X18728Y-3616D01*
G75*
G03X18823Y-3711I95J0D01*
G74*
G01*
G75*
G03X18918Y-3616I0J95D01*
G74*
G01*
X18918Y-3046D01*
G37*
G36*
G01X18518Y-3046D02*
G75*
G03X18423Y-2951I-95J0D01*
G74*
G01*
G75*
G03X18328Y-3046I0J-95D01*
G74*
G01*
X18328Y-3616D01*
G75*
G03X18423Y-3711I95J0D01*
G74*
G01*
G75*
G03X18518Y-3616I0J95D01*
G74*
G01*
X18518Y-3146D01*
G75*
G03X18518Y-3137I-95J0D01*
G74*
G01*
X18518Y-3046D01*
G37*
G36*
G01X18118Y-3046D02*
G75*
G03X18023Y-2951I-95J0D01*
G74*
G01*
G75*
G03X17928Y-3046I0J-95D01*
G74*
G01*
X17928Y-3616D01*
G75*
G03X18023Y-3711I95J0D01*
G74*
G01*
G75*
G03X18118Y-3616I0J95D01*
G74*
G01*
X18118Y-3046D01*
G37*
G36*
G01X17718Y-3046D02*
G75*
G03X17623Y-2951I-95J0D01*
G74*
G01*
G75*
G03X17528Y-3046I0J-95D01*
G74*
G01*
X17528Y-3137D01*
G75*
G03X17528Y-3146I95J-9D01*
G74*
G01*
X17528Y-3616D01*
G75*
G03X17623Y-3711I95J0D01*
G74*
G01*
G75*
G03X17718Y-3616I0J95D01*
G74*
G01*
X17718Y-3146D01*
G75*
G03X17718Y-3137I-95J0D01*
G74*
G01*
X17718Y-3046D01*
G37*
G36*
G01X17318Y-3046D02*
G75*
G03X17223Y-2951I-95J0D01*
G74*
G01*
G75*
G03X17128Y-3046I0J-95D01*
G74*
G01*
X17128Y-3137D01*
G75*
G03X17128Y-3146I95J-9D01*
G74*
G01*
X17128Y-3616D01*
G75*
G03X17223Y-3711I95J0D01*
G74*
G01*
G75*
G03X17318Y-3616I0J95D01*
G74*
G01*
X17318Y-3146D01*
G75*
G03X17318Y-3137I-95J0D01*
G74*
G01*
X17318Y-3046D01*
G37*
G36*
G01X16918Y-3046D02*
G75*
G03X16823Y-2951I-95J0D01*
G74*
G01*
G75*
G03X16728Y-3046I0J-95D01*
G74*
G01*
X16728Y-3137D01*
G75*
G03X16728Y-3146I95J-9D01*
G74*
G01*
X16728Y-3616D01*
G75*
G03X16823Y-3711I95J0D01*
G74*
G01*
G75*
G03X16918Y-3616I0J95D01*
G74*
G01*
X16918Y-3046D01*
G37*
G36*
G01X16518Y-3046D02*
G75*
G03X16423Y-2951I-95J0D01*
G74*
G01*
G75*
G03X16328Y-3046I0J-95D01*
G74*
G01*
X16328Y-3137D01*
G75*
G03X16328Y-3146I95J-9D01*
G74*
G01*
X16328Y-3616D01*
G75*
G03X16423Y-3711I95J0D01*
G74*
G01*
G75*
G03X16518Y-3616I0J95D01*
G74*
G01*
X16518Y-3146D01*
G75*
G03X16518Y-3137I-95J0D01*
G74*
G01*
X16518Y-3046D01*
G37*
G36*
G01X16118Y-3046D02*
G75*
G03X16023Y-2951I-95J0D01*
G74*
G01*
G75*
G03X15928Y-3046I0J-95D01*
G74*
G01*
X15928Y-3137D01*
G75*
G03X15928Y-3146I95J-9D01*
G74*
G01*
X15928Y-3616D01*
G75*
G03X16023Y-3711I95J0D01*
G74*
G01*
G75*
G03X16118Y-3616I0J95D01*
G74*
G01*
X16118Y-3146D01*
G75*
G03X16118Y-3137I-95J0D01*
G74*
G01*
X16118Y-3046D01*
G37*
G36*
G01X15718Y-3046D02*
G75*
G03X15623Y-2951I-95J0D01*
G74*
G01*
G75*
G03X15528Y-3046I0J-95D01*
G74*
G01*
X15528Y-3137D01*
G75*
G03X15528Y-3146I95J-9D01*
G74*
G01*
X15528Y-3616D01*
G75*
G03X15623Y-3711I95J0D01*
G74*
G01*
G75*
G03X15718Y-3616I0J95D01*
G74*
G01*
X15718Y-3146D01*
G75*
G03X15718Y-3137I-95J0D01*
G74*
G01*
X15718Y-3046D01*
G37*
G36*
G01X15318Y-3046D02*
G75*
G03X15223Y-2951I-95J0D01*
G74*
G01*
G75*
G03X15128Y-3046I0J-95D01*
G74*
G01*
X15128Y-3137D01*
G75*
G03X15128Y-3146I95J-9D01*
G74*
G01*
X15128Y-3616D01*
G75*
G03X15223Y-3711I95J0D01*
G74*
G01*
G75*
G03X15318Y-3616I0J95D01*
G74*
G01*
X15318Y-3046D01*
G37*
G36*
G01X14918Y-3046D02*
G75*
G03X14823Y-2951I-95J0D01*
G74*
G01*
G75*
G03X14728Y-3046I0J-95D01*
G74*
G01*
X14728Y-3616D01*
G75*
G03X14823Y-3711I95J0D01*
G74*
G01*
G75*
G03X14918Y-3616I0J95D01*
G74*
G01*
X14918Y-3146D01*
G75*
G03X14918Y-3137I-95J0D01*
G74*
G01*
X14918Y-3046D01*
G37*
G36*
G01X14518Y-3046D02*
G75*
G03X14423Y-2951I-95J0D01*
G74*
G01*
G75*
G03X14328Y-3046I0J-95D01*
G74*
G01*
X14328Y-3137D01*
G75*
G03X14328Y-3146I95J-9D01*
G74*
G01*
X14328Y-3616D01*
G75*
G03X14423Y-3711I95J0D01*
G74*
G01*
G75*
G03X14518Y-3616I0J95D01*
G74*
G01*
X14518Y-3146D01*
G75*
G03X14518Y-3137I-95J0D01*
G74*
G01*
X14518Y-3046D01*
G37*
G36*
G01X14118Y-3046D02*
G75*
G03X14023Y-2951I-95J0D01*
G74*
G01*
G75*
G03X13928Y-3046I0J-95D01*
G74*
G01*
X13928Y-3616D01*
G75*
G03X14023Y-3711I95J0D01*
G74*
G01*
G75*
G03X14118Y-3616I0J95D01*
G74*
G01*
X14118Y-3046D01*
G37*
G36*
G01X13718Y-3046D02*
G75*
G03X13623Y-2951I-95J0D01*
G74*
G01*
G75*
G03X13528Y-3046I0J-95D01*
G74*
G01*
X13528Y-3137D01*
G75*
G03X13528Y-3146I95J-9D01*
G74*
G01*
X13528Y-3616D01*
G75*
G03X13623Y-3711I95J0D01*
G74*
G01*
G75*
G03X13718Y-3616I0J95D01*
G74*
G01*
X13718Y-3046D01*
G37*
G36*
G01X13318Y-3046D02*
G75*
G03X13223Y-2951I-95J0D01*
G74*
G01*
G75*
G03X13128Y-3046I0J-95D01*
G74*
G01*
X13128Y-3137D01*
G75*
G03X13128Y-3146I95J-9D01*
G74*
G01*
X13128Y-3616D01*
G75*
G03X13223Y-3711I95J0D01*
G74*
G01*
G75*
G03X13318Y-3616I0J95D01*
G74*
G01*
X13318Y-3046D01*
G37*
G36*
G01X12918Y-3046D02*
G75*
G03X12823Y-2951I-95J0D01*
G74*
G01*
G75*
G03X12728Y-3046I0J-95D01*
G74*
G01*
X12728Y-3616D01*
G75*
G03X12823Y-3711I95J0D01*
G74*
G01*
G75*
G03X12918Y-3616I0J95D01*
G74*
G01*
X12918Y-3046D01*
G37*
G36*
G01X12518Y-3046D02*
G75*
G03X12423Y-2951I-95J0D01*
G74*
G01*
G75*
G03X12328Y-3046I0J-95D01*
G74*
G01*
X12328Y-3616D01*
G75*
G03X12423Y-3711I95J0D01*
G74*
G01*
G75*
G03X12518Y-3616I0J95D01*
G74*
G01*
X12518Y-3046D01*
G37*
G36*
G01X12118Y-3046D02*
G75*
G03X12023Y-2951I-95J0D01*
G74*
G01*
G75*
G03X11928Y-3046I0J-95D01*
G74*
G01*
X11928Y-3616D01*
G75*
G03X12023Y-3711I95J0D01*
G74*
G01*
G75*
G03X12118Y-3616I0J95D01*
G74*
G01*
X12118Y-3046D01*
G37*
G36*
G01X11718Y-3046D02*
G75*
G03X11623Y-2951I-95J0D01*
G74*
G01*
G75*
G03X11528Y-3046I0J-95D01*
G74*
G01*
X11528Y-3616D01*
G75*
G03X11623Y-3711I95J0D01*
G74*
G01*
G75*
G03X11718Y-3616I0J95D01*
G74*
G01*
X11718Y-3146D01*
G75*
G03X11718Y-3137I-95J0D01*
G74*
G01*
X11718Y-3046D01*
G37*
G36*
G01X11318Y-3046D02*
G75*
G03X11223Y-2951I-95J0D01*
G74*
G01*
G75*
G03X11128Y-3046I0J-95D01*
G74*
G01*
X11128Y-3137D01*
G75*
G03X11128Y-3146I95J-9D01*
G74*
G01*
X11128Y-3616D01*
G75*
G03X11223Y-3711I95J0D01*
G74*
G01*
G75*
G03X11318Y-3616I0J95D01*
G74*
G01*
X11318Y-3046D01*
G37*
G36*
G01X10918Y-3046D02*
G75*
G03X10823Y-2951I-95J0D01*
G74*
G01*
G75*
G03X10728Y-3046I0J-95D01*
G74*
G01*
X10728Y-3616D01*
G75*
G03X10823Y-3711I95J0D01*
G74*
G01*
G75*
G03X10918Y-3616I0J95D01*
G74*
G01*
X10918Y-3146D01*
G75*
G03X10918Y-3137I-95J0D01*
G74*
G01*
X10918Y-3046D01*
G37*
G36*
G01X10518Y-3046D02*
G75*
G03X10423Y-2951I-95J0D01*
G74*
G01*
G75*
G03X10328Y-3046I0J-95D01*
G74*
G01*
X10328Y-3616D01*
G75*
G03X10423Y-3711I95J0D01*
G74*
G01*
G75*
G03X10518Y-3616I0J95D01*
G74*
G01*
X10518Y-3146D01*
G75*
G03X10518Y-3137I-95J0D01*
G74*
G01*
X10518Y-3046D01*
G37*
G36*
G01X10118Y-3046D02*
G75*
G03X10023Y-2951I-95J0D01*
G74*
G01*
G75*
G03X9928Y-3046I0J-95D01*
G74*
G01*
X9928Y-3616D01*
G75*
G03X10023Y-3711I95J0D01*
G74*
G01*
G75*
G03X10118Y-3616I0J95D01*
G74*
G01*
X10118Y-3046D01*
G37*
G36*
G01X9718Y-3046D02*
G75*
G03X9623Y-2951I-95J0D01*
G74*
G01*
G75*
G03X9528Y-3046I0J-95D01*
G74*
G01*
X9528Y-3616D01*
G75*
G03X9623Y-3711I95J0D01*
G74*
G01*
G75*
G03X9718Y-3616I0J95D01*
G74*
G01*
X9718Y-3146D01*
G75*
G03X9718Y-3137I-95J0D01*
G74*
G01*
X9718Y-3046D01*
G37*
G36*
G01X9318Y-3046D02*
G75*
G03X9223Y-2951I-95J0D01*
G74*
G01*
G75*
G03X9128Y-3046I0J-95D01*
G74*
G01*
X9128Y-3616D01*
G75*
G03X9223Y-3711I95J0D01*
G74*
G01*
G75*
G03X9318Y-3616I0J95D01*
G74*
G01*
X9318Y-3046D01*
G37*
G36*
G01X8865Y-3069D02*
G75*
G03X8748Y-2952I-117J0D01*
G74*
G01*
G75*
G03X8631Y-3069I0J-117D01*
G74*
G01*
X8631Y-3594D01*
G75*
G03X8748Y-3711I117J0D01*
G74*
G01*
G75*
G03X8865Y-3594I0J117D01*
G74*
G01*
X8865Y-3069D01*
G37*
G36*
G01X-4627Y-3026D02*
X-6327Y-3026D01*
X-6327Y-3826D01*
X-4627Y-3826D01*
X-4627Y-3026D01*
G37*
G36*
G01X-7452Y-3026D02*
X-9152Y-3026D01*
X-9152Y-3826D01*
X-7452Y-3826D01*
X-7452Y-3026D01*
G37*
G36*
G01X-15277Y-3222D02*
X-15478Y-3222D01*
X-15505Y-3227D01*
X-15530Y-3242D01*
X-15547Y-3264D01*
X-15556Y-3291D01*
X-15557Y-3302D01*
X-15557Y-3461D01*
X-15552Y-3489D01*
X-15538Y-3513D01*
X-15516Y-3531D01*
X-15489Y-3540D01*
X-15277Y-3540D01*
X-15249Y-3535D01*
X-15224Y-3521D01*
X-15207Y-3499D01*
X-15198Y-3472D01*
X-15197Y-3461D01*
X-15197Y-3302D01*
X-15202Y-3274D01*
X-15216Y-3250D01*
X-15239Y-3232D01*
X-15265Y-3223D01*
X-15277Y-3222D01*
G37*
G36*
G01X21415Y-3069D02*
G75*
G03X21298Y-2952I-117J0D01*
G74*
G01*
G75*
G03X21181Y-3069I0J-117D01*
G74*
G01*
X21181Y-3159D01*
G75*
G03X21181Y-3169I117J-10D01*
G74*
G01*
X21181Y-3594D01*
G75*
G03X21298Y-3711I117J0D01*
G74*
G01*
G75*
G03X21415Y-3594I0J117D01*
G74*
G01*
X21415Y-3169D01*
G75*
G03X21415Y-3159I-117J0D01*
G74*
G01*
X21415Y-3069D01*
G37*
G36*
G01X22524Y-3222D02*
X22322Y-3222D01*
X22295Y-3227D01*
X22270Y-3242D01*
X22253Y-3264D01*
X22244Y-3291D01*
X22243Y-3302D01*
X22243Y-3461D01*
X22248Y-3489D01*
X22262Y-3513D01*
X22284Y-3531D01*
X22311Y-3540D01*
X22524Y-3540D01*
X22551Y-3535D01*
X22576Y-3521D01*
X22593Y-3499D01*
X22602Y-3472D01*
X22603Y-3461D01*
X22603Y-3302D01*
X22598Y-3274D01*
X22584Y-3250D01*
X22561Y-3232D01*
X22535Y-3223D01*
X22524Y-3222D01*
G37*
G36*
G01X22524Y-3912D02*
X22322Y-3912D01*
X22295Y-3917D01*
X22270Y-3932D01*
X22253Y-3954D01*
X22244Y-3981D01*
X22243Y-3992D01*
X22243Y-4151D01*
X22248Y-4179D01*
X22262Y-4203D01*
X22284Y-4221D01*
X22311Y-4230D01*
X22524Y-4230D01*
X22551Y-4225D01*
X22576Y-4211D01*
X22593Y-4189D01*
X22602Y-4162D01*
X22603Y-4151D01*
X22603Y-3992D01*
X22598Y-3964D01*
X22584Y-3940D01*
X22561Y-3922D01*
X22535Y-3913D01*
X22524Y-3912D01*
G37*
G36*
G01X-15277Y-3912D02*
X-15478Y-3912D01*
X-15505Y-3917D01*
X-15530Y-3932D01*
X-15547Y-3954D01*
X-15556Y-3981D01*
X-15557Y-3992D01*
X-15557Y-4151D01*
X-15552Y-4179D01*
X-15538Y-4203D01*
X-15516Y-4221D01*
X-15489Y-4230D01*
X-15277Y-4230D01*
X-15249Y-4225D01*
X-15224Y-4211D01*
X-15207Y-4189D01*
X-15198Y-4162D01*
X-15197Y-4151D01*
X-15197Y-3992D01*
X-15202Y-3964D01*
X-15216Y-3940D01*
X-15239Y-3922D01*
X-15265Y-3913D01*
X-15277Y-3912D01*
G37*
M02*
